<?xml version="1.0" encoding="utf-8"?>
<svg xmlns="http://www.w3.org/2000/svg" viewBox="0 0 500 500">
  <g id="Layer_1" transform="matrix(1.71817, 0, 0, 1.737924, 221.868866, -71.536461)" style="">
    <path fill="#0E0705" opacity="1.000000" stroke="none" d="M 78.333 208.554 C 75.64 208.565 72.947 208.576 69.824 208.055 C 69.342 204.862 69.288 202.201 69.311 199.08 C 69.326 192.931 69.265 187.242 69.275 181.114 C 69.479 172.547 69.479 172.526 61.41 172.561 C 58.15 172.575 54.891 172.706 51.155 172.705 C 44.937 172.565 39.194 172.504 33.419 172.002 C 33.383 168.879 33.378 166.197 33.824 163.558 C 36.953 163.551 39.632 163.501 42.78 163.53 C 48.988 163.557 54.727 163.505 60.91 163.538 C 63.925 163.624 66.497 163.624 69.409 163.624 C 69.409 160.125 69.409 157.333 69.858 154.577 C 73.009 154.576 75.71 154.539 78.378 154.854 C 78.363 155.676 78.381 156.145 78.399 156.615 C 78.41 157.95 78.421 159.286 78.378 161.498 C 78.327 177.767 78.33 193.161 78.333 208.554 Z" style="stroke-width: 1;"/>
    <path fill="#090605" opacity="1.000000" stroke="none" d="M -21.429 208.547 C -23.844 208.58 -26.26 208.613 -29.143 208.133 C -29.608 197.494 -29.562 187.367 -29.649 177.241 C -29.662 175.732 -30.3 174.229 -31.107 172.643 C -39.904 172.493 -48.242 172.424 -56.581 172.355 C -56.582 170.047 -56.583 167.74 -56.401 164.901 C -55.978 164.22 -55.774 164.033 -55.14 163.752 C -49.32 163.624 -43.965 163.551 -38.15 163.572 C -32.339 163.667 -26.989 163.669 -21.603 164.064 C -21.469 165.506 -21.371 166.554 -21.332 168.021 C -21.337 170.13 -21.285 171.82 -21.342 173.968 C -21.382 179.841 -21.314 185.254 -21.31 191.124 C -21.393 197.236 -21.411 202.891 -21.429 208.547 Z" style="stroke-width: 1;"/>
    <path fill="#E3A756" opacity="1.000000" stroke="none" d="M -38.611 163.478 C -43.965 163.551 -49.32 163.624 -55.384 163.672 C -56.262 163.68 -56.43 163.714 -56.599 163.748 C -56.599 163.748 -57.003 163.559 -57.242 163.074 C -57.481 160.016 -57.481 157.443 -57.481 154.399 C -60.939 154.399 -63.723 154.399 -66.509 153.94 C -66.513 147.901 -66.513 142.321 -66.513 136.493 C -63.181 136.493 -60.393 136.493 -57.584 136.939 C -57.544 144.444 -57.54 144.421 -50.711 145.624 C -49.963 145.756 -49.294 146.333 -48.383 147.038 C -48.037 149.637 -47.895 151.901 -47.746 154.271 C -44.48 154.422 -41.519 154.559 -38.684 154.92 C -39.008 155.613 -39.205 156.081 -39.444 156.949 C -39.194 159.392 -38.903 161.435 -38.611 163.478 Z" style="stroke-width: 1;"/>
    <path fill="#0E0F0E" opacity="1.000000" stroke="none" d="M -57.604 136.493 C -60.393 136.493 -63.181 136.493 -66.513 136.493 C -66.513 142.321 -66.513 147.901 -66.238 154.212 C -58.668 156.504 -58.668 156.504 -58.534 163.611 C -62.126 165.035 -65.238 165.967 -65.787 160.236 C -66.082 157.156 -68.25 155.279 -71.724 155.582 C -75.455 155.908 -76.298 154.56 -75.93 150.599 C -75.259 143.356 -75.685 136.011 -75.162 128.174 C -68.99 127.64 -63.308 127.64 -57.492 127.64 C -57.492 129.217 -57.477 130.201 -57.495 131.184 C -57.529 132.99 -57.583 134.796 -57.642 136.57 C -57.657 136.539 -57.604 136.493 -57.604 136.493 Z" style="stroke-width: 1;"/>
    <path fill="#090605" opacity="1.000000" stroke="none" d="M -48.588 146.704 C -49.294 146.333 -49.963 145.756 -50.711 145.624 C -57.54 144.421 -57.544 144.444 -57.584 136.939 C -57.604 136.493 -57.657 136.539 -57.195 136.521 C -54.042 136.509 -51.352 136.515 -48.661 136.52 C -48.301 138.868 -47.942 141.215 -47.809 144.081 C -48.384 144.758 -48.547 145.027 -48.542 145.732 C -48.568 146.272 -48.578 146.488 -48.588 146.704 Z" style="stroke-width: 1;"/>
    <path fill="#ACCBD1" opacity="1.000000" stroke="none" d="M 13.932 144.518 C 14.399 144.488 14.355 144.926 13.909 145.224 C -7.2 145.484 -27.863 145.446 -48.526 145.408 C -48.547 145.027 -48.384 144.758 -47.807 144.501 C -27.23 144.451 -6.882 144.5 13.932 144.518 Z" style="stroke-width: 1;"/>
    <path fill="#B8D6DA" opacity="1.000000" stroke="none" d="M 78.641 208.558 C 78.33 193.161 78.327 177.767 78.355 161.898 C 78.729 162.906 79.362 164.388 79.37 165.874 C 79.45 179.789 79.423 193.704 79.495 208.084 C 79.358 208.553 79.153 208.557 78.641 208.558 Z" style="stroke-width: 1;"/>
    <path fill="#A1BFC9" opacity="1.000000" stroke="none" d="M -48.836 136.136 C -51.352 136.515 -54.042 136.509 -57.18 136.553 C -57.583 134.796 -57.529 132.99 -57.495 131.184 C -57.477 130.201 -57.492 129.217 -57.492 127.64 C -63.308 127.64 -68.99 127.64 -75.134 127.722 C -75.331 127.395 -75.07 126.633 -74.8 126.63 C -68.887 126.562 -62.972 126.578 -56.661 126.578 C -56.661 129.633 -56.661 132.365 -56.661 135.323 C -53.856 135.48 -51.434 135.615 -48.836 136.136 Z" style="stroke-width: 1;"/>
    <path fill="#768187" opacity="1.000000" stroke="none" d="M -30.648 172.723 C -30.3 174.229 -29.662 175.732 -29.649 177.241 C -29.562 187.367 -29.608 197.494 -29.592 208.089 C -29.769 208.55 -29.966 208.542 -30.456 208.516 C -30.687 197.162 -30.623 185.824 -30.614 173.814 C -30.669 173.141 -30.648 172.723 -30.648 172.723 Z" style="stroke-width: 1;"/>
    <path fill="#A1BFC9" opacity="1.000000" stroke="none" d="M -31.107 172.643 C -30.648 172.723 -30.669 173.141 -30.625 173.345 C -39.517 173.538 -48.453 173.526 -57.39 173.51 C -57.543 173.509 -57.696 173.447 -57.849 173.414 C -57.674 173.123 -57.5 172.831 -56.953 172.447 C -48.242 172.424 -39.904 172.493 -31.107 172.643 Z" style="stroke-width: 1;"/>
    <path fill="#100A06" opacity="1.000000" stroke="none" d="M -58.262 163.584 C -58.668 156.504 -58.668 156.504 -66.234 154.67 C -63.723 154.399 -60.939 154.399 -57.481 154.399 C -57.481 157.443 -57.481 160.016 -57.463 163.041 C -57.627 163.514 -57.808 163.535 -58.262 163.584 Z" style="stroke-width: 1;"/>
    <path fill="#100A06" opacity="1.000000" stroke="none" d="M -56.6 163.952 C -56.43 163.714 -56.262 163.68 -55.85 163.726 C -55.774 164.033 -55.978 164.22 -56.403 164.467 C -56.588 164.564 -56.601 164.156 -56.6 163.952 Z" style="stroke-width: 1;"/>
    <path fill="#EBA851" opacity="1.000000" stroke="none" d="M 33.451 172.442 C 39.194 172.504 44.937 172.565 51.088 173.138 C 51.234 181.527 51.234 181.527 58.904 181.58 C 59.396 181.584 59.888 181.597 60.393 182.066 C 60.356 185.328 60.307 188.131 59.893 190.918 C 58.802 190.87 58.075 190.838 56.978 190.686 C 54.894 190.813 53.18 191.061 51.415 191.789 C 51.342 197.661 51.319 203.052 51.297 208.444 C 48.643 208.429 45.989 208.414 42.903 207.931 C 42.353 206.823 42.235 206.184 42.1 205.226 C 42.079 204.483 42.075 204.058 42.199 203.282 C 42.246 202.445 42.164 201.96 42.071 201.059 C 42.071 198.98 42.083 197.317 42.184 195.351 C 42.216 194.845 42.158 194.643 42.089 194.111 C 42.074 193.123 42.071 192.464 42.156 191.501 C 42.221 190.987 42.198 190.777 42.211 190.115 C 42.559 181.57 42.559 181.57 34.554 181.547 C 34.061 181.546 33.569 181.537 33.076 181.543 C 24.064 181.644 24.141 180.104 24.006 190.309 C 14.582 190.239 5.632 190.1 -3.174 189.539 C -2.311 184.58 -2.854 181.194 -8.801 181.322 C -9.715 181.342 -11.318 178.767 -11.514 177.251 C -12.1 172.704 -12.147 168.088 -12.402 163.058 C -12.46 159.978 -12.523 157.337 -12.134 154.609 C -8.618 154.585 -5.553 154.647 -2.518 155.151 C -2.815 164.107 -1.302 165.343 5.977 162.406 C 5.761 159.863 5.541 157.278 5.774 154.611 C 8.989 154.533 11.75 154.537 14.702 154.722 C 15.198 155.085 15.505 155.266 15.701 155.887 C 15.03 163.506 15.156 163.649 22.056 163.534 C 22.546 163.526 23.034 163.468 23.743 163.532 C 23.963 163.63 24.382 163.868 24.378 164.301 C 24.352 172.678 24.352 172.678 32.467 172.48 C 32.795 172.472 33.123 172.455 33.451 172.442 Z" style="stroke-width: 1;"/>
    <path fill="#090605" opacity="1.000000" stroke="none" d="M 42.094 195.654 C 42.083 197.317 42.071 198.98 41.912 201.24 C 41.866 202.435 41.968 203.034 42.07 203.633 C 42.075 204.058 42.079 204.483 41.928 205.476 C 41.698 206.862 41.624 207.68 41.55 208.497 C 39.139 208.551 36.728 208.604 33.861 208.154 C 33.405 205.066 33.405 202.481 33.405 199.82 C 26.998 199.82 21.236 199.82 15.474 199.82 C 14.958 202.588 14.442 205.356 13.831 208.628 C 11.674 208.628 9.415 208.628 6.703 208.148 C 6.235 205.972 6.219 204.276 6.31 202.129 C 6.413 199.203 6.161 196.692 6.524 194.274 C 6.68 193.234 8.11 191.58 8.969 191.575 C 20.001 191.507 31.035 191.688 42.067 191.806 C 42.071 192.464 42.074 193.123 41.941 194.228 C 41.777 194.798 41.694 194.944 41.733 195.04 C 41.821 195.258 41.97 195.451 42.094 195.654 Z" style="stroke-width: 1;"/>
    <path fill="#E3A756" opacity="1.000000" stroke="none" d="M -21.062 208.604 C -21.411 202.891 -21.393 197.236 -21.045 191.103 C -20.38 190.521 -20.043 190.415 -19.274 190.38 C -16.813 190.512 -14.782 190.573 -12.724 190.885 C -12.643 191.295 -12.59 191.454 -12.555 192.076 C -12.508 197.568 -12.442 202.598 -12.376 207.628 C -15.149 207.972 -17.922 208.316 -21.062 208.604 Z" style="stroke-width: 1;"/>
    <path fill="#100A06" opacity="1.000000" stroke="none" d="M 57.348 190.806 C 58.075 190.838 58.802 190.87 59.878 191.343 C 60.306 194.369 60.384 196.954 60.379 199.977 C 60.304 203.077 60.312 205.738 60.32 208.399 C 57.612 208.474 54.905 208.55 51.747 208.534 C 51.319 203.052 51.342 197.661 51.797 191.773 C 53.936 191.12 55.642 190.963 57.348 190.806 Z" style="stroke-width: 1;"/>
    <path fill="#000000" opacity="1.000000" stroke="none" d="M 31.198 208.53 C 26.115 208.53 21.031 208.53 15.367 208.53 C 15.367 205.847 15.367 203.603 15.85 200.936 C 21.615 200.514 26.896 200.514 32.991 200.514 C 32.297 203.617 31.748 206.073 31.198 208.53 Z" style="stroke-width: 1;"/>
    <path fill="#D88923" opacity="1.000000" stroke="none" d="M 6.204 202.581 C 6.219 204.276 6.235 205.972 6.243 208.088 C 3.294 208.609 0.353 208.71 -2.935 208.223 C -3.225 205.007 -3.17 202.378 -2.71 199.676 C 0.854 199.673 4.624 197.997 6.204 202.581 Z" style="stroke-width: 1;"/>
    <path fill="#D38727" opacity="1.000000" stroke="none" d="M 60.649 208.61 C 60.312 205.738 60.304 203.077 60.82 199.98 C 63.974 199.542 66.604 199.541 69.235 199.539 C 69.288 202.201 69.342 204.862 69.383 207.957 C 66.573 208.534 63.775 208.678 60.649 208.61 Z" style="stroke-width: 1;"/>
    <path fill="#1F0A05" opacity="1.000000" stroke="none" d="M -3.115 199.749 C -3.17 202.378 -3.225 205.007 -3.275 208.075 C -3.492 208.531 -3.715 208.548 -4.285 208.115 C -4.664 204.414 -4.425 201.127 -4.848 197.928 C -5.042 196.455 -6.531 195.154 -7.433 193.775 C -8.15 195.031 -9.384 196.247 -9.486 197.552 C -9.768 201.177 -9.58 204.838 -9.577 208.485 C -10.331 208.298 -11.085 208.11 -12.107 207.775 C -12.442 202.598 -12.508 197.568 -12.114 191.957 C -3.836 191.091 -3.837 191.091 -3.304 198.79 C -3.282 199.112 -3.18 199.429 -3.115 199.749 Z" style="stroke-width: 1;"/>
    <path fill="#020303" opacity="1.000000" stroke="none" d="M -9.166 208.547 C -9.58 204.838 -9.768 201.177 -9.486 197.552 C -9.384 196.247 -8.15 195.031 -7.433 193.775 C -6.531 195.154 -5.042 196.455 -4.848 197.928 C -4.425 201.127 -4.664 204.414 -4.616 208.066 C -5.985 208.515 -7.369 208.562 -9.166 208.547 Z" style="stroke-width: 1;"/>
    <path fill="#A1BFC9" opacity="1.000000" stroke="none" d="M 31.566 208.593 C 31.748 206.073 32.297 203.617 32.991 200.514 C 26.896 200.514 21.615 200.514 15.865 200.479 C 15.396 200.444 15.547 200.146 15.511 199.983 C 21.236 199.82 26.998 199.82 33.405 199.82 C 33.405 202.481 33.405 205.066 33.412 208.108 C 32.924 208.595 32.429 208.626 31.566 208.593 Z" style="stroke-width: 1;"/>
    <path fill="#985B18" opacity="1.000000" stroke="none" d="M 41.807 208.444 C 41.624 207.68 41.698 206.862 41.944 205.795 C 42.235 206.184 42.353 206.823 42.485 207.781 C 42.354 208.196 42.209 208.293 41.807 208.444 Z" style="stroke-width: 1;"/>
    <path fill="#EBA851" opacity="1.000000" stroke="none" d="M 60.467 163.452 C 54.727 163.505 48.988 163.557 42.797 163.082 C 42.348 159.537 42.351 156.519 42.405 153.104 C 42.4 151.646 42.344 150.586 42.333 149.102 C 42.122 144.97 41.865 141.262 41.792 137.288 C 41.183 136.034 40.561 134.474 39.562 134.174 C 37.637 133.598 35.499 133.734 33.391 133.149 C 33.327 131.018 33.321 129.312 33.723 127.594 C 36.229 127.247 38.327 126.913 40.712 126.596 C 41.381 126.611 41.763 126.609 42.349 126.973 C 48.402 127.332 54.25 127.326 60.564 127.376 C 63.814 127.48 66.598 127.528 69.383 128.008 C 69.019 130.859 68.654 133.279 67.921 135.642 C 65.256 135.587 62.958 135.587 60.561 135.587 C 60.466 137.176 60.351 138.153 60.36 139.128 C 60.378 141.263 60.459 143.397 60.451 145.974 C 60.415 149.071 60.441 151.726 60.448 154.838 C 60.441 158.014 60.454 160.733 60.467 163.452 Z" style="stroke-width: 1;"/>
    <path fill="#E3A756" opacity="1.000000" stroke="none" d="M 78.384 154.524 C 75.71 154.539 73.009 154.576 69.866 154.599 C 69.423 154.585 69.467 154.569 69.4 154.104 C 69.303 147.979 69.273 142.319 69.696 136.593 C 72.86 136.532 75.57 136.537 78.358 136.798 C 78.489 137.225 78.542 137.396 78.505 138.025 C 78.404 143.859 78.392 149.236 78.38 154.613 C 78.38 154.613 78.357 154.547 78.384 154.524 Z" style="stroke-width: 1;"/>
    <path fill="#B76916" opacity="1.000000" stroke="none" d="M 69.311 199.08 C 66.604 199.541 63.974 199.542 60.902 199.541 C 60.384 196.954 60.306 194.369 60.242 191.359 C 60.307 188.131 60.356 185.328 60.839 182.052 C 63.916 181.57 66.56 181.561 69.203 181.553 C 69.265 187.242 69.326 192.931 69.311 199.08 Z" style="stroke-width: 1;"/>
    <path fill="#D88923" opacity="1.000000" stroke="none" d="M 69.275 181.114 C 66.56 181.561 63.916 181.57 60.826 181.593 C 59.888 181.597 59.396 181.584 58.904 181.58 C 51.234 181.527 51.234 181.527 51.563 173.218 C 54.891 172.706 58.15 172.575 61.41 172.561 C 69.479 172.526 69.479 172.547 69.275 181.114 Z" style="stroke-width: 1;"/>
    <path fill="#D38727" opacity="1.000000" stroke="none" d="M 60.91 163.538 C 60.454 160.733 60.441 158.014 60.897 154.876 C 64.065 154.494 66.766 154.532 69.467 154.569 C 69.467 154.569 69.423 154.585 69.416 154.563 C 69.409 157.333 69.409 160.125 69.409 163.624 C 66.497 163.624 63.925 163.624 60.91 163.538 Z" style="stroke-width: 1;"/>
    <path fill="#D88923" opacity="1.000000" stroke="none" d="M 42.354 153.501 C 42.351 156.519 42.348 159.537 42.328 163.003 C 39.632 163.501 36.953 163.551 33.843 163.58 C 33.411 163.561 33.464 163.585 33.383 163.145 C 33.298 160.321 33.295 157.937 33.508 155.419 C 33.955 155.036 34.185 154.787 34.834 154.52 C 37.619 154.168 39.987 153.835 42.354 153.501 Z" style="stroke-width: 1;"/>
    <path fill="#D38727" opacity="1.000000" stroke="none" d="M 33.419 172.002 C 33.123 172.455 32.795 172.472 32.467 172.48 C 24.352 172.678 24.352 172.678 24.41 164.185 C 24.447 163.635 24.464 163.395 24.906 163.479 C 28.053 163.571 30.758 163.578 33.464 163.585 C 33.464 163.585 33.411 163.561 33.392 163.538 C 33.378 166.197 33.383 168.879 33.419 172.002 Z" style="stroke-width: 1;"/>
    <path fill="#DD881F" opacity="1.000000" stroke="none" d="M -12.752 190.635 C -14.782 190.573 -16.813 190.512 -19.253 189.939 C -19.665 186.997 -19.466 184.543 -19.719 182.138 C -20.023 179.241 -20.711 176.384 -21.232 173.51 C -21.285 171.82 -21.337 170.13 -21.03 167.882 C -20.372 166.068 -20.075 164.812 -19.31 163.55 C -16.697 163.529 -14.551 163.513 -12.405 163.498 C -12.147 168.088 -12.1 172.704 -11.514 177.251 C -11.318 178.767 -9.715 181.342 -8.801 181.322 C -2.854 181.194 -2.311 184.58 -3.538 189.483 C -6.948 190.111 -9.85 190.373 -12.752 190.635 Z" style="stroke-width: 1;"/>
    <path fill="#DD881F" opacity="1.000000" stroke="none" d="M -38.15 163.572 C -38.903 161.435 -39.194 159.392 -38.996 156.951 C -32.841 156.172 -27.177 155.79 -21.286 155.465 C -21.06 155.522 -20.624 155.689 -20.627 156.124 C -20.617 158.897 -20.604 161.234 -20.855 163.577 C -21.292 163.612 -21.466 163.641 -21.639 163.67 C -26.989 163.669 -32.339 163.667 -38.15 163.572 Z" style="stroke-width: 1;"/>
    <path fill="#B27633" opacity="1.000000" stroke="none" d="M -21.342 173.968 C -20.711 176.384 -20.023 179.241 -19.719 182.138 C -19.466 184.543 -19.665 186.997 -19.685 189.869 C -20.043 190.415 -20.38 190.521 -20.981 190.647 C -21.314 185.254 -21.382 179.841 -21.342 173.968 Z" style="stroke-width: 1;"/>
    <path fill="#B27633" opacity="1.000000" stroke="none" d="M -21.603 164.064 C -21.466 163.641 -21.292 163.612 -20.651 163.573 C -20.184 163.563 -19.777 163.556 -19.777 163.556 C -20.075 164.812 -20.372 166.068 -20.972 167.463 C -21.371 166.554 -21.469 165.506 -21.603 164.064 Z" style="stroke-width: 1;"/>
    <path fill="#0B0604" opacity="1.000000" stroke="none" d="M -20.624 155.689 C -20.624 155.689 -21.06 155.522 -21.539 155.112 C -27.532 154.701 -33.045 154.698 -38.558 154.696 C -41.519 154.559 -44.48 154.422 -47.746 154.271 C -47.895 151.901 -48.037 149.637 -48.383 147.038 C -48.578 146.488 -48.568 146.272 -48.542 145.732 C -27.863 145.446 -7.2 145.484 13.924 145.444 C 14.724 142.23 15.24 139.102 15.361 135.959 C 15.533 131.479 15.415 126.989 15.709 122.378 C 15.998 129.513 15.998 136.772 15.998 144.031 C 17.233 143.302 17.387 142.537 17.388 141.772 C 17.407 133.29 17.543 124.804 17.338 116.327 C 17.247 112.584 18.626 111.3 22.278 111.478 C 26.924 111.704 31.596 111.671 36.242 111.45 C 37.65 111.382 39.011 110.32 40.393 109.714 C 40.92 112.149 41.447 114.585 41.405 117.498 C 36.355 117.945 31.874 117.915 27.393 117.882 C 24.832 117.863 23.01 118.491 23.966 122.065 C 23.966 124.124 24.051 125.776 23.998 127.874 C 23.93 131.126 24.001 133.931 23.992 137.161 C 23.954 140.196 23.998 142.806 23.907 145.858 C 23.615 148.871 23.458 151.441 23.293 154.117 C 20.044 154.274 17.278 154.407 14.512 154.541 C 11.75 154.537 8.989 154.533 5.353 154.51 C 2.157 154.564 -0.165 154.636 -2.487 154.709 C -5.553 154.647 -8.618 154.585 -12.524 154.674 C -15.784 155.113 -18.204 155.401 -20.624 155.689 Z" style="stroke-width: 1;"/>
    <path fill="#D38727" opacity="1.000000" stroke="none" d="M -38.684 154.92 C -33.045 154.698 -27.532 154.701 -21.765 155.055 C -27.177 155.79 -32.841 156.172 -38.954 156.552 C -39.205 156.081 -39.008 155.613 -38.684 154.92 Z" style="stroke-width: 1;"/>
    <path fill="#211B13" opacity="1.000000" stroke="none" d="M 40.063 109.642 C 39.011 110.32 37.65 111.382 36.242 111.45 C 31.596 111.671 26.924 111.704 22.278 111.478 C 18.626 111.3 17.247 112.584 17.338 116.327 C 17.543 124.804 17.407 133.29 17.388 141.772 C 17.387 142.537 17.233 143.302 15.998 144.031 C 15.998 136.772 15.998 129.513 15.765 121.914 C 15.481 121.118 15.429 120.662 15.68 119.55 C 16.787 115.824 17.592 112.752 18.397 109.681 C 20.787 109.632 23.177 109.584 26.34 109.839 C 30.874 109.994 34.634 109.845 38.395 109.696 C 38.841 109.654 39.287 109.611 40.063 109.642 Z" style="stroke-width: 1;"/>
    <path fill="#A66419" opacity="1.000000" stroke="none" d="M 24.051 121.658 C 23.01 118.491 24.832 117.863 27.393 117.882 C 31.874 117.915 36.355 117.945 41.338 117.958 C 41.84 117.941 41.801 117.964 41.658 118.178 C 41.515 118.392 41.235 118.772 40.785 118.75 C 35.712 119.027 31.088 119.326 26.298 119.821 C 25.849 120.442 25.566 120.867 25.08 121.366 C 24.619 121.577 24.344 121.649 24.051 121.658 Z" style="stroke-width: 1;"/>
    <path fill="#0B0604" opacity="1.000000" stroke="none" d="M 17.967 109.633 C 17.592 112.752 16.787 115.824 15.757 119.212 C 15.493 116.965 15.283 114.386 15.513 111.847 C 15.586 111.038 16.829 110.336 17.967 109.633 Z" style="stroke-width: 1;"/>
    <path fill="#0B0604" opacity="1.000000" stroke="none" d="M 37.939 109.642 C 34.634 109.845 30.874 109.994 26.782 109.914 C 30.128 109.653 33.805 109.621 37.939 109.642 Z" style="stroke-width: 1;"/>
    <path fill="#A66419" opacity="1.000000" stroke="none" d="M 41.651 118.199 C 41.788 118.006 42.125 117.981 42.292 118.012 C 42.459 118.042 42.525 118.329 42.463 118.777 C 42.336 119.647 42.271 120.07 42.041 120.307 C 41.663 119.671 41.449 119.222 41.235 118.772 C 41.235 118.772 41.515 118.392 41.651 118.199 Z" style="stroke-width: 1;"/>
    <path fill="#020303" opacity="1.000000" stroke="none" d="M 78.595 137.566 C 78.542 137.396 78.489 137.225 78.44 136.378 C 78.506 133.978 78.567 132.254 78.822 130.188 C 78.877 126.413 78.736 122.981 78.521 119.322 C 78.445 119.094 78.392 118.617 78.371 118.215 C 75.612 114.816 64.831 114.59 60.594 117.44 C 60.542 115.758 60.491 114.076 60.968 111.977 C 70.049 111.561 78.602 111.562 87.154 111.563 C 87.2 112.335 87.245 113.107 87.041 114.459 C 86.917 115.849 87.042 116.659 87.167 117.47 C 87.221 118.585 87.275 119.7 87.043 121.568 C 86.638 131.112 86.68 139.911 86.272 148.688 C 86.184 150.584 84.475 152.404 83.512 154.258 C 82.726 154.314 81.941 154.369 80.594 153.991 C 79.554 148.228 79.074 142.897 78.595 137.566 Z" style="stroke-width: 1;"/>
    <path fill="#0E0F0E" opacity="1.000000" stroke="none" d="M 87.242 111.307 C 78.602 111.562 70.049 111.561 61.039 111.561 C 60.54 111.392 60.5 111.221 60.982 110.796 C 66.466 110.256 71.429 109.971 76.392 109.686 C 79.443 109.637 82.495 109.587 86.099 109.782 C 86.812 110.221 86.998 110.387 87.209 110.524 C 87.249 110.7 87.29 110.875 87.242 111.307 Z" style="stroke-width: 1;"/>
    <path fill="#211B13" opacity="1.000000" stroke="none" d="M 83.928 154.351 C 84.475 152.404 86.184 150.584 86.272 148.688 C 86.68 139.911 86.638 131.112 86.972 121.982 C 87.255 131.593 87.253 141.546 87.441 151.494 C 87.487 153.927 86.731 154.878 83.928 154.351 Z" style="stroke-width: 1;"/>
    <path fill="#211B13" opacity="1.000000" stroke="none" d="M 78.505 138.025 C 79.074 142.897 79.554 148.228 80.206 153.918 C 79.937 154.363 79.496 154.448 78.717 154.573 C 78.392 149.236 78.404 143.859 78.505 138.025 Z" style="stroke-width: 1;"/>
    <path fill="#211B13" opacity="1.000000" stroke="none" d="M 87.254 117.121 C 87.042 116.659 86.917 115.849 86.972 114.841 C 87.215 115.353 87.278 116.063 87.254 117.121 Z" style="stroke-width: 1;"/>
    <path fill="#020303" opacity="1.000000" stroke="none" d="M 87.294 110.27 C 86.998 110.387 86.812 110.221 86.549 109.87 C 86.619 109.672 86.793 109.629 87.232 109.541 C 87.457 109.67 87.418 109.843 87.294 110.27 Z" style="stroke-width: 1;"/>
    <path fill="#020303" opacity="1.000000" stroke="none" d="M 75.931 109.618 C 71.429 109.971 66.466 110.256 61.048 110.542 C 60.546 110.368 60.499 110.195 60.399 109.756 C 65.388 109.512 70.429 109.531 75.931 109.618 Z" style="stroke-width: 1;"/>
    <path fill="#1F0A05" opacity="1.000000" stroke="none" d="M 42.205 120.492 C 42.271 120.07 42.336 119.647 42.387 118.903 C 48.084 118.56 53.796 118.539 59.961 118.52 C 60.415 118.522 60.374 118.554 60.368 118.997 C 60.274 122.067 60.186 124.694 60.098 127.321 C 54.25 127.326 48.402 127.332 42.409 126.542 C 42.244 123.995 42.225 122.243 42.205 120.492 Z" style="stroke-width: 1;"/>
    <path fill="#211B13" opacity="1.000000" stroke="none" d="M 60.527 117.716 C 64.831 114.59 75.612 114.816 77.91 118.141 C 71.77 118.497 66.072 118.525 60.374 118.554 C 60.374 118.554 60.415 118.522 60.431 118.542 C 60.45 118.373 60.455 118.183 60.527 117.716 Z" style="stroke-width: 1;"/>
    <path fill="#DD881F" opacity="1.000000" stroke="none" d="M 24.48 190.24 C 24.141 180.104 24.064 181.644 33.076 181.543 C 33.569 181.537 34.061 181.546 34.554 181.547 C 42.559 181.57 42.559 181.57 41.769 190.06 C 35.687 190.385 30.084 190.312 24.48 190.24 Z" style="stroke-width: 1;"/>
    <path fill="#985B18" opacity="1.000000" stroke="none" d="M 24.006 190.309 C 30.084 190.312 35.687 190.385 41.733 190.512 C 42.198 190.777 42.221 190.987 42.156 191.501 C 31.035 191.688 20.001 191.507 8.969 191.575 C 8.11 191.58 6.68 193.234 6.524 194.274 C 6.161 196.692 6.413 199.203 6.31 202.129 C 4.624 197.997 0.854 199.673 -2.71 199.676 C -3.18 199.429 -3.282 199.112 -3.304 198.79 C -3.837 191.091 -3.836 191.091 -12.095 191.494 C -12.59 191.454 -12.643 191.295 -12.724 190.885 C -9.85 190.373 -6.948 190.111 -3.681 189.905 C 5.632 190.1 14.582 190.239 24.006 190.309 Z" style="stroke-width: 1;"/>
    <path fill="#D88923" opacity="1.000000" stroke="none" d="M -2.518 155.151 C -0.165 154.636 2.157 154.564 4.899 154.592 C 5.541 157.278 5.761 159.863 5.977 162.406 C -1.302 165.343 -2.815 164.107 -2.518 155.151 Z" style="stroke-width: 1;"/>
    <path fill="#DD881F" opacity="1.000000" stroke="none" d="M 23.523 163.434 C 23.034 163.468 22.546 163.526 22.056 163.534 C 15.156 163.649 15.03 163.506 16.077 155.878 C 19.07 155.829 21.577 156.226 24.108 156.931 C 24.119 157.647 24.105 158.056 23.922 158.785 C 23.677 160.548 23.6 161.991 23.523 163.434 Z" style="stroke-width: 1;"/>
    <path fill="#B76916" opacity="1.000000" stroke="none" d="M -20.627 156.124 C -18.204 155.401 -15.784 155.113 -12.975 154.76 C -12.523 157.337 -12.46 159.978 -12.402 163.058 C -14.551 163.513 -16.697 163.529 -19.31 163.55 C -19.777 163.556 -20.184 163.563 -20.387 163.567 C -20.604 161.234 -20.617 158.897 -20.627 156.124 Z" style="stroke-width: 1;"/>
    <path fill="#A66419" opacity="1.000000" stroke="none" d="M 24.084 156.624 C 21.577 156.226 19.07 155.829 16.188 155.439 C 15.505 155.266 15.198 155.085 14.702 154.722 C 17.278 154.407 20.044 154.274 23.293 154.117 C 23.458 151.441 23.615 148.871 24.105 145.914 C 24.64 145.714 24.866 145.87 25.15 146.396 C 25.2 147.456 25.215 148.114 25.229 148.772 C 25.275 151.076 24.901 153.593 28.461 153.638 C 31.874 153.681 32.608 151.647 32.496 148.812 C 32.457 147.826 32.477 146.838 32.658 145.771 C 32.847 145.693 33.209 145.504 33.288 145.933 C 33.717 149.087 34.066 151.813 34.416 154.539 C 34.185 154.787 33.955 155.036 33.182 155.197 C 29.665 154.927 26.374 152.948 24.084 156.624 Z" style="stroke-width: 1;"/>
    <path fill="#B76916" opacity="1.000000" stroke="none" d="M 56.978 190.686 C 55.642 190.963 53.936 191.12 51.848 191.292 C 53.18 191.061 54.894 190.813 56.978 190.686 Z" style="stroke-width: 1;"/>
    <path fill="#A66419" opacity="1.000000" stroke="none" d="M 23.743 163.532 C 23.6 161.991 23.677 160.548 24.009 159.188 C 24.332 160.646 24.398 162.021 24.464 163.395 C 24.464 163.395 24.447 163.635 24.414 163.752 C 24.382 163.868 23.963 163.63 23.743 163.532 Z" style="stroke-width: 1;"/>
    <path fill="#985B18" opacity="1.000000" stroke="none" d="M 42.199 203.282 C 41.968 203.034 41.866 202.435 41.923 201.656 C 42.164 201.96 42.246 202.445 42.199 203.282 Z" style="stroke-width: 1;"/>
    <path fill="#985B18" opacity="1.000000" stroke="none" d="M 42.184 195.351 C 41.97 195.451 41.821 195.258 41.733 195.04 C 41.694 194.944 41.777 194.798 41.952 194.558 C 42.158 194.643 42.216 194.845 42.184 195.351 Z" style="stroke-width: 1;"/>
    <path fill="#D88923" opacity="1.000000" stroke="none" d="M 60.368 118.997 C 66.072 118.525 71.77 118.497 77.93 118.543 C 78.392 118.617 78.445 119.094 78.435 119.752 C 78.359 122.455 78.292 124.501 77.877 126.73 C 74.814 127.133 72.098 127.354 69.382 127.576 C 66.598 127.528 63.814 127.48 60.564 127.376 C 60.186 124.694 60.274 122.067 60.368 118.997 Z" style="stroke-width: 1;"/>
    <path fill="#DD881F" opacity="1.000000" stroke="none" d="M 25.282 121.292 C 25.566 120.867 25.849 120.442 26.757 119.8 C 29.368 119.576 31.355 119.563 33.342 119.564 C 40.379 119.566 40.379 119.568 40.426 126.58 C 38.327 126.913 36.229 127.247 33.288 127.583 C 30.092 127.603 27.738 127.621 25.398 127.601 C 25.412 127.562 25.449 127.489 25.443 127.055 C 25.385 124.844 25.334 123.068 25.282 121.292 Z" style="stroke-width: 1;"/>
    <path fill="#E3A756" opacity="1.000000" stroke="none" d="M 25.114 145.994 C 24.866 145.87 24.64 145.714 24.238 145.472 C 23.998 142.806 23.954 140.196 24.227 137.116 C 24.821 136.484 25.095 136.315 25.777 136.23 C 28.968 136.353 32.179 137.53 33.45 133.574 C 35.499 133.734 37.637 133.598 39.562 134.174 C 40.561 134.474 41.183 136.034 41.546 136.934 C 38.607 136.844 36.099 136.844 33.478 136.844 C 33.478 139.706 33.478 142.127 33.386 144.78 C 33.293 145.012 33.209 145.504 33.209 145.504 C 33.209 145.504 32.847 145.693 32.211 145.676 C 29.421 145.77 27.267 145.882 25.114 145.994 Z" style="stroke-width: 1;"/>
    <path fill="#57361E" opacity="1.000000" stroke="none" d="M 69.4 154.104 C 66.766 154.532 64.065 154.494 60.916 154.419 C 60.441 151.726 60.415 149.071 60.88 145.986 C 68.32 145.517 68.32 145.517 68.39 138.567 C 68.397 137.922 68.419 137.277 68.636 136.647 C 68.838 136.661 69.243 136.659 69.243 136.659 C 69.273 142.319 69.303 147.979 69.4 154.104 Z" style="stroke-width: 1;"/>
    <path fill="#B76916" opacity="1.000000" stroke="none" d="M 69.696 136.593 C 69.243 136.659 68.838 136.661 68.597 136.413 C 68.356 136.165 68.288 135.698 68.288 135.698 C 68.654 133.279 69.019 130.859 69.383 128.008 C 72.098 127.354 74.814 127.133 77.947 127.124 C 78.453 128.401 78.54 129.466 78.628 130.531 C 78.567 132.254 78.506 133.978 78.363 136.121 C 75.57 136.537 72.86 136.532 69.696 136.593 Z" style="stroke-width: 1;"/>
    <path fill="#3A1E13" opacity="1.000000" stroke="none" d="M 67.921 135.642 C 68.288 135.698 68.356 136.165 68.395 136.399 C 68.419 137.277 68.397 137.922 68.39 138.567 C 68.32 145.517 68.32 145.517 60.943 145.543 C 60.459 143.397 60.378 141.263 60.36 139.128 C 60.351 138.153 60.466 137.176 60.561 135.587 C 62.958 135.587 65.256 135.587 67.921 135.642 Z" style="stroke-width: 1;"/>
    <path fill="#3A1E13" opacity="1.000000" stroke="none" d="M 33.478 144.548 C 33.478 142.127 33.478 139.706 33.478 136.844 C 36.099 136.844 38.607 136.844 41.362 137.198 C 41.865 141.262 42.122 144.97 42.001 148.998 C 40.489 145.028 36.336 145.894 33.478 144.548 Z" style="stroke-width: 1;"/>
    <path fill="#57361E" opacity="1.000000" stroke="none" d="M 33.386 144.78 C 36.336 145.894 40.489 145.028 41.955 149.421 C 42.344 150.586 42.4 151.646 42.405 153.104 C 39.987 153.835 37.619 154.168 34.834 154.52 C 34.066 151.813 33.717 149.087 33.288 145.933 C 33.209 145.504 33.293 145.012 33.386 144.78 Z" style="stroke-width: 1;"/>
    <path fill="#B76916" opacity="1.000000" stroke="none" d="M 33.391 133.149 C 32.179 137.53 28.968 136.353 25.789 135.821 C 25.387 132.762 25.385 130.201 25.384 127.639 C 27.738 127.621 30.092 127.603 32.881 127.596 C 33.321 129.312 33.327 131.018 33.391 133.149 Z" style="stroke-width: 1;"/>
    <path fill="#D38727" opacity="1.000000" stroke="none" d="M 40.712 126.596 C 40.379 119.568 40.379 119.566 33.342 119.564 C 31.355 119.563 29.368 119.576 26.922 119.604 C 31.088 119.326 35.712 119.027 40.785 118.75 C 41.449 119.222 41.663 119.671 42.041 120.307 C 42.225 122.243 42.244 123.995 42.204 126.177 C 41.763 126.609 41.381 126.611 40.712 126.596 Z" style="stroke-width: 1;"/>
    <path fill="#3A1E13" opacity="1.000000" stroke="none" d="M 24.906 163.479 C 24.398 162.021 24.332 160.646 24.178 158.868 C 24.105 158.056 24.119 157.647 24.108 156.931 C 26.374 152.948 29.665 154.927 32.965 155.332 C 33.295 157.937 33.298 160.321 33.383 163.145 C 30.758 163.578 28.053 163.571 24.906 163.479 M 28.824 162.372 C 29.38 161.49 30.474 160.54 30.373 159.74 C 30.2 158.364 29.283 157.082 28.678 155.76 C 27.909 157.08 26.844 158.328 26.498 159.75 C 26.326 160.46 27.468 161.489 28.824 162.372 Z" style="stroke-width: 1;"/>
    <path fill="#A66419" opacity="1.000000" stroke="none" d="M 25.398 127.601 C 25.385 130.201 25.387 132.762 25.376 135.732 C 25.095 136.315 24.821 136.484 24.308 136.691 C 24.001 133.931 23.93 131.126 24.217 127.875 C 24.575 127.429 25.01 127.492 25.01 127.492 C 25.01 127.492 25.449 127.489 25.449 127.489 C 25.449 127.489 25.412 127.562 25.398 127.601 Z" style="stroke-width: 1;"/>
    <path fill="#D38727" opacity="1.000000" stroke="none" d="M 25.443 127.055 C 25.449 127.489 25.01 127.492 25.01 127.492 C 25.01 127.492 24.575 127.429 24.356 127.428 C 24.051 125.776 23.966 124.124 23.966 122.065 C 24.344 121.649 24.619 121.577 25.08 121.366 C 25.334 123.068 25.385 124.844 25.443 127.055 Z" style="stroke-width: 1;"/>
    <path fill="#211B13" opacity="1.000000" stroke="none" d="M 78.822 130.188 C 78.54 129.466 78.453 128.401 78.295 126.942 C 78.292 124.501 78.359 122.455 78.511 119.979 C 78.736 122.981 78.877 126.413 78.822 130.188 Z" style="stroke-width: 1;"/>
    <path fill="#D88923" opacity="1.000000" stroke="none" d="M 25.15 146.396 C 27.267 145.882 29.421 145.77 32.022 145.754 C 32.477 146.838 32.457 147.826 32.496 148.812 C 32.608 151.647 31.874 153.681 28.461 153.638 C 24.901 153.593 25.275 151.076 25.229 148.772 C 25.215 148.114 25.2 147.456 25.15 146.396 Z" style="stroke-width: 1;"/>
    <path fill="#090605" opacity="1.000000" stroke="none" d="M 28.42 162.373 C 27.468 161.489 26.326 160.46 26.498 159.75 C 26.844 158.328 27.909 157.08 28.678 155.76 C 29.283 157.082 30.2 158.364 30.373 159.74 C 30.474 160.54 29.38 161.49 28.42 162.373 Z" style="stroke-width: 1;"/>
  </g>
</svg>