<?xml version="1.0" encoding="utf-8"?>
<svg xmlns="http://www.w3.org/2000/svg" viewBox="0 0 500 500">
  <g id="Layer_1" transform="matrix(1.791047, 0, 0, 1.974826, -161.22821, -250.532471)" style="">
    <path fill="#100A06" opacity="1.000000" stroke="none" style="stroke-width: 1;" d="M 174.767 293.721 C 174.768 295.985 174.77 298.25 174.458 301.024 C 173.936 301.612 173.727 301.689 173.086 301.751 C 170.336 301.676 168.017 301.618 165.686 301.092 C 165.674 292.215 165.674 283.808 165.674 275.248 C 168.819 274.996 171.277 274.798 174.199 274.685 C 180.344 274.713 186.026 274.657 192.171 274.709 C 210.35 274.737 228.067 274.658 246.042 274.632 C 246.467 274.629 246.634 274.573 247.233 274.623 C 250.323 274.698 252.98 274.667 256.105 274.734 C 262.309 274.762 268.047 274.69 274.233 274.713 C 277.253 274.806 279.825 274.806 282.675 274.806 C 282.675 271.234 282.675 268.439 282.725 265.576 C 282.774 265.507 282.881 265.377 282.881 265.377 C 284.775 265.723 286.793 266.658 288.536 266.29 C 291.805 265.599 292.818 266.805 292.806 269.749 C 292.789 274.044 292.793 278.34 292.303 283.045 C 289.161 283.527 286.505 283.658 283.848 283.659 C 249.279 283.673 214.71 283.669 180.141 283.669 C 178.2 283.669 176.258 283.669 173.946 283.669 C 173.946 287.056 173.946 289.844 173.924 292.895 C 174.191 293.345 174.479 293.533 174.767 293.721 Z"/>
    <path fill="#EBA84F" opacity="1.000000" stroke="none" style="stroke-width: 1;" d="M 246.801 274.518 C 246.634 274.573 246.467 274.629 245.711 274.377 C 243.329 273.895 241.537 273.577 239.744 273.57 C 224.024 273.508 208.305 273.502 192.61 273.06 C 193.181 267.849 191.843 264.835 186.219 265.517 C 183.652 265.828 182.843 264.447 182.903 261.91 C 183.015 257.15 182.788 252.382 182.77 247.171 C 182.869 244.036 182.899 241.348 182.93 238.66 C 182.93 238.66 183.371 238.608 184.021 238.557 C 187.384 238.587 190.097 238.667 192.721 239.104 C 192.958 241.965 192.639 244.883 193.869 246.812 C 194.541 247.866 198.682 248.153 199.74 247.163 C 201.162 245.833 201.156 242.944 201.674 240.703 C 201.818 240.08 201.647 239.383 202.069 238.645 C 204.932 238.594 207.346 238.619 209.913 238.821 C 210.296 239.207 210.549 239.386 210.795 239.98 C 210.669 247.554 210.669 247.554 217.845 247.559 C 218.493 247.56 219.14 247.546 219.786 247.516 C 219.785 247.494 219.829 247.497 219.82 247.817 C 219.834 248.56 219.857 248.984 219.832 249.853 C 219.965 254.099 219.742 257.417 214.372 256.628 C 211.072 256.144 210.67 258.414 210.675 261.05 C 210.68 263.668 211.004 265.644 214.361 265.562 C 219.173 265.444 223.989 265.543 229.254 265.563 C 232.121 265.498 234.54 265.42 237.177 265.392 C 237.395 265.443 237.841 265.391 238.281 265.49 C 241.433 265.685 244.145 265.78 246.802 266.297 C 246.765 269.319 246.783 271.919 246.801 274.518 Z"/>
    <path fill="#828183" opacity="1.000000" stroke="none" style="stroke-width: 1;" d="M 173.946 292.632 C 173.946 289.844 173.946 287.056 173.946 283.669 C 176.258 283.669 178.2 283.669 180.141 283.669 C 214.71 283.669 249.279 283.673 283.848 283.659 C 286.505 283.658 289.161 283.527 292.282 283.514 C 293.58 283.896 294.405 284.473 295.248 284.503 C 302.101 284.747 302.102 284.716 300.909 292.293 C 300.084 292.446 299.894 292.416 299.36 292.171 C 298.035 291.824 297.053 291.574 296.071 291.574 C 257.431 291.553 218.792 291.545 180.153 291.589 C 178.716 291.591 177.279 292.124 175.527 292.456 C 174.79 292.546 174.368 292.589 173.946 292.632 Z"/>
    <path fill="#090605" opacity="1.000000" stroke="none" style="stroke-width: 1;" d="M 209.761 238.645 C 207.346 238.619 204.932 238.594 201.642 238.563 C 198.115 238.62 195.462 238.684 192.81 238.748 C 190.097 238.667 187.384 238.587 184.221 238.461 C 183.771 235.784 183.771 233.153 184.232 230.084 C 196.047 229.599 207.402 229.552 219.143 229.31 C 219.65 221.269 219.77 213.424 220.118 205.922 C 220.345 213.783 220.345 221.301 220.345 228.819 C 220.818 228.813 221.29 228.807 221.763 228.8 C 221.763 222.189 221.858 215.576 221.721 208.967 C 221.657 205.864 222.631 204.362 225.966 204.484 C 230.603 204.655 235.269 204.283 239.882 204.654 C 241.571 204.79 243.143 206.386 245.333 207.638 C 244.438 205.903 243.607 204.291 243.167 202.626 C 244.613 202.538 245.666 202.503 246.719 202.467 C 246.737 204.817 246.754 207.166 246.505 210.059 C 246.088 210.93 245.938 211.257 245.324 211.519 C 239.501 211.568 234.143 211.682 228.485 212.059 C 228.249 218.105 228.312 223.889 228.274 230.103 C 228.209 233.156 228.245 235.779 228.165 238.853 C 228.048 241.885 228.048 244.466 228.048 247.497 C 224.75 247.497 222.29 247.497 219.829 247.497 C 219.829 247.497 219.785 247.494 219.748 247.078 C 219.622 244.321 219.534 241.98 219.317 239.249 C 216.045 238.787 212.903 238.716 209.761 238.645 Z"/>
    <path fill="#0B0604" opacity="1.000000" stroke="none" style="stroke-width: 1;" d="M 246.857 265.874 C 244.145 265.78 241.433 265.685 238.265 265.258 C 237.81 264.925 237.64 264.491 237.638 264.056 C 237.683 261.59 237.73 259.559 238.05 257.521 C 238.817 257.315 239.311 257.117 240.121 256.908 C 240.857 256.911 241.278 256.924 241.816 257.063 C 242.228 257.094 242.523 256.998 243.176 256.874 C 244.25 256.861 244.966 256.877 245.799 257.025 C 246.229 257.085 246.542 257.013 246.917 256.821 C 246.98 256.701 246.752 256.555 247.212 256.653 C 253.404 256.68 259.136 256.608 265.065 256.652 C 265.262 256.768 265.706 256.878 265.886 257.035 C 266.643 257.085 267.22 256.978 268.117 256.847 C 268.865 256.838 269.292 256.852 269.948 257.038 C 271.067 257.091 271.957 256.973 273.141 256.547 C 273.543 253.374 273.651 250.51 274.184 247.683 C 277.005 247.968 279.4 248.216 281.796 248.463 C 281.785 252.478 281.7 256.494 281.804 260.506 C 281.841 261.929 282.337 263.34 282.752 265.067 C 282.881 265.377 282.774 265.507 282.279 265.553 C 278.852 265.655 275.921 265.711 272.511 265.701 C 266.563 265.692 261.093 265.748 255.196 265.721 C 252.132 265.717 249.495 265.796 246.857 265.874 Z"/>
    <path fill="#05070A" opacity="1.000000" stroke="none" style="stroke-width: 1;" d="M 291.737 244.66 C 291.031 249.076 289.616 249.619 285.09 246.597 C 285.024 242.647 284.787 239.342 284.758 236.036 C 284.697 228.872 284.927 221.699 284.605 214.55 C 284.53 212.88 282.784 209.928 281.72 209.888 C 276.124 209.678 270.5 210.213 264.819 210.052 C 264.773 207.232 264.794 204.849 264.815 202.466 C 264.815 202.466 264.792 202.58 265.209 202.573 C 274.328 202.54 283.031 202.513 291.734 202.486 C 291.749 205.113 291.764 207.739 291.68 211.283 C 291.633 223.019 291.685 233.84 291.737 244.66 Z"/>
    <path fill="#E3A756" opacity="1.000000" stroke="none" style="stroke-width: 1;" d="M 165.698 301.56 C 168.017 301.618 170.336 301.676 173.195 301.948 C 173.887 302.444 174.121 302.618 174.403 303.144 C 174.38 306.257 174.377 308.912 174.397 311.567 C 174.478 322.271 174.638 320.194 165.752 320.708 C 165.46 320.486 165.168 320.264 164.845 319.347 C 164.813 316.394 164.813 314.136 164.813 311.7 C 161.701 311.7 159.228 311.7 156.755 311.7 C 156.473 311.485 156.191 311.271 155.853 310.561 C 155.75 309.894 155.703 309.723 155.74 309.089 C 155.902 300.263 155.981 291.898 156.464 283.542 C 159.388 283.302 161.909 283.052 164.479 283.252 C 164.919 289.655 165.309 295.607 165.698 301.56 Z"/>
    <path fill="#020303" opacity="1.000000" stroke="none" style="stroke-width: 1;" d="M 155.656 309.551 C 155.703 309.723 155.75 309.894 155.73 310.323 C 153.262 310.887 150.863 311.193 148.073 311.015 C 147.458 304.433 147.235 298.335 147.051 291.805 C 146.992 288.749 146.894 286.124 146.796 283.499 C 146.796 283.499 146.782 283.558 147.13 283.355 C 147.478 277.764 147.478 272.376 147.478 266.676 C 150.498 266.676 152.603 266.676 154.546 267.049 C 154.178 272.471 153.974 277.52 153.768 283.036 C 153.764 290.316 153.88 297.132 153.664 303.938 C 153.618 305.393 152.369 306.81 151.675 308.245 C 151.038 306.752 149.987 305.296 149.85 303.759 C 149.565 300.558 149.764 297.314 149.764 294.089 C 148.758 297.218 149.015 300.365 148.698 303.453 C 148.213 308.18 149.84 310.398 154.984 309.557 C 155.208 309.556 155.656 309.551 155.656 309.551 Z"/>
    <path fill="#0B0604" opacity="1.000000" stroke="none" style="stroke-width: 1;" d="M 156.983 257.545 C 164.288 257.551 164.266 257.546 165.833 250.163 C 166.758 245.81 170.344 248.13 173.457 247.515 C 174.353 247.562 174.538 247.575 174.514 247.949 C 174.106 254.027 173.907 259.743 173.26 265.468 C 170.117 265.575 167.422 265.673 164.29 265.707 C 161.506 265.601 159.158 265.559 156.807 265.075 C 156.863 262.269 156.923 259.907 156.983 257.545 Z"/>
    <path fill="#090605" opacity="1.000000" stroke="none" style="stroke-width: 1;" d="M 165.799 320.973 C 174.638 320.194 174.478 322.271 174.397 311.567 C 174.377 308.912 174.38 306.257 174.868 303.107 C 177.784 302.637 180.206 302.662 182.688 303.09 C 182.708 304.851 182.668 306.209 182.415 307.279 C 181.666 304.087 180.212 302.791 178.16 303.65 C 179.081 305.346 180.539 306.852 180.646 308.449 C 180.969 313.221 180.852 318.032 180.696 322.821 C 180.659 323.97 180.124 325.589 179.27 326.139 C 175.92 328.293 168.535 326.031 166.733 322.545 C 166.438 322.109 166.142 321.674 165.799 320.973 Z"/>
    <path fill="#1F0A05" opacity="1.000000" stroke="none" style="stroke-width: 1;" d="M 264.886 210.49 C 270.5 210.213 276.124 209.678 281.72 209.888 C 282.784 209.928 284.53 212.88 284.605 214.55 C 284.927 221.699 284.697 228.872 284.758 236.036 C 284.787 239.342 285.024 242.647 284.968 246.241 C 284.228 247.063 283.687 247.596 282.906 247.814 C 282.617 241.502 282.568 235.504 282.595 229.054 C 282.415 222.968 282.158 217.334 281.434 211.607 C 275.557 211.535 270.15 211.556 264.731 211.298 C 264.775 210.844 264.831 210.667 264.886 210.49 Z"/>
    <path fill="#7E878C" opacity="1.000000" stroke="none" style="stroke-width: 1;" d="M 146.341 283.484 C 146.894 286.124 146.992 288.749 146.964 292.135 C 146.81 293.122 146.783 293.347 146.757 293.573 C 145.119 293.558 143.452 293.341 141.849 293.568 C 137.54 294.177 136.558 292.148 136.613 288.217 C 136.664 284.61 137.787 283.023 141.467 283.448 C 142.922 283.616 144.413 283.471 146.341 283.484 Z"/>
    <path fill="#211B13" opacity="1.000000" stroke="none" style="stroke-width: 1;" d="M 166.74 322.962 C 168.535 326.031 175.92 328.293 179.27 326.139 C 180.124 325.589 180.659 323.97 180.696 322.821 C 180.852 318.032 180.969 313.221 180.646 308.449 C 180.539 306.852 179.081 305.346 178.16 303.65 C 180.212 302.791 181.666 304.087 182.495 307.738 C 182.738 313.838 182.687 319.19 182.405 324.832 C 180.771 325.927 179.421 327.293 177.958 327.426 C 174.25 327.762 170.492 327.544 166.754 327.549 C 166.752 326.159 166.749 324.769 166.74 322.962 Z"/>
    <path fill="#0B0604" opacity="1.000000" stroke="none" style="stroke-width: 1;" d="M 156.762 312.061 C 159.228 311.7 161.701 311.7 164.813 311.7 C 164.813 314.136 164.813 316.394 164.729 319.095 C 163.656 319.405 162.628 319.038 161.688 319.195 C 160.264 319.432 158.9 320.034 158.517 320.157 C 157.773 316.862 157.271 314.642 156.762 312.061 Z"/>
    <path fill="#090605" opacity="1.000000" stroke="none" style="stroke-width: 1;" d="M 166.593 327.822 C 170.492 327.544 174.25 327.762 177.958 327.426 C 179.421 327.293 180.771 325.927 182.457 325.204 C 182.432 326.379 182.123 327.473 181.814 328.566 C 176.686 328.409 171.559 328.252 166.593 327.822 Z"/>
    <path fill="#B8D6DA" opacity="1.000000" stroke="none" style="stroke-width: 1;" d="M 292.133 244.455 C 291.685 233.84 291.633 223.019 291.648 211.713 C 292.065 211.881 292.719 212.536 292.718 213.189 C 292.704 223.543 292.607 233.897 292.133 244.455 Z"/>
    <path fill="#090605" opacity="1.000000" stroke="none" style="stroke-width: 1;" d="M 175.774 239.538 C 177.515 239.221 179.257 238.904 181.311 238.959 C 181.067 241.644 180.51 243.956 179.954 246.269 C 179.475 246.373 178.996 246.477 178.518 246.581 C 177.609 244.589 176.699 242.597 175.79 240.605 C 175.783 240.432 175.775 240.258 175.765 239.819 C 175.762 239.553 175.774 239.538 175.774 239.538 Z"/>
    <path fill="#1F0A05" opacity="1.000000" stroke="none" style="stroke-width: 1;" d="M 175.78 240.998 C 176.699 242.597 177.609 244.589 178.518 246.581 C 178.996 246.477 179.475 246.373 179.954 246.269 C 180.51 243.956 181.067 241.644 181.692 238.943 C 181.957 238.564 182.152 238.574 182.639 238.622 C 182.899 241.348 182.869 244.036 182.332 247.158 C 179.458 247.59 177.09 247.589 174.722 247.588 C 174.538 247.575 174.353 247.562 173.894 247.507 C 174.336 245.44 175.053 243.415 175.78 240.998 Z"/>
    <path fill="#E3A756" opacity="1.000000" stroke="none" style="stroke-width: 1;" d="M 282.518 229.506 C 282.568 235.504 282.617 241.502 282.659 247.955 C 282.651 248.412 282.225 248.473 282.011 248.468 C 279.4 248.216 277.005 247.968 274.207 247.672 C 273.805 247.623 273.813 247.574 273.73 247.24 C 273.692 246.453 273.736 246 274.064 245.655 C 281.561 246.92 281.732 246.783 281.748 239.64 C 281.756 236.324 281.736 233.008 281.928 229.655 C 282.127 229.617 282.518 229.506 282.518 229.506 Z"/>
    <path fill="#5D6B6F" opacity="1.000000" stroke="none" style="stroke-width: 1;" d="M 146.768 294.039 C 146.783 293.347 146.81 293.122 146.924 292.566 C 147.235 298.335 147.458 304.433 147.649 310.991 C 147.338 305.802 147.059 300.154 146.768 294.039 Z"/>
    <path fill="#090605" opacity="1.000000" stroke="none" style="stroke-width: 1;" d="M 175.755 239.559 C 175.747 239.565 175.44 239.356 175.44 239.356 C 175.44 239.356 175.681 239.365 175.727 239.451 C 175.774 239.538 175.762 239.553 175.755 239.559 Z"/>
    <path fill="#D88923" opacity="1.000000" stroke="none" style="stroke-width: 1;" d="M 174.514 247.949 C 177.09 247.589 179.458 247.59 182.264 247.604 C 182.788 252.382 183.015 257.15 182.903 261.91 C 182.843 264.447 183.652 265.828 186.219 265.517 C 191.843 264.835 193.181 267.849 192.426 273.212 C 192 274.028 191.83 274.3 191.707 274.601 C 186.026 274.657 180.344 274.713 174.202 274.228 C 173.73 270.945 173.719 268.202 173.708 265.46 C 173.907 259.743 174.106 254.027 174.514 247.949 Z"/>
    <path fill="#EBA851" opacity="1.000000" stroke="none" style="stroke-width: 1;" d="M 255.623 265.804 C 261.093 265.748 266.563 265.692 272.646 266.059 C 273.434 269.195 273.609 271.907 273.784 274.619 C 268.047 274.69 262.309 274.762 256.108 274.287 C 255.638 271.096 255.63 268.45 255.623 265.804 Z"/>
    <path fill="#A66419" opacity="1.000000" stroke="none" style="stroke-width: 1;" d="M 173.26 265.468 C 173.719 268.202 173.73 270.945 173.739 274.144 C 171.277 274.798 168.819 274.996 165.674 275.248 C 165.674 283.808 165.674 292.215 165.686 301.092 C 165.309 295.607 164.919 289.655 164.548 282.768 C 164.62 276.48 164.674 271.126 164.728 265.772 C 167.422 265.673 170.117 265.575 173.26 265.468 Z"/>
    <path fill="#D38727" opacity="1.000000" stroke="none" style="stroke-width: 1;" d="M 274.233 274.713 C 273.609 271.907 273.434 269.195 273.124 266.124 C 275.921 265.711 278.852 265.655 282.229 265.622 C 282.675 268.439 282.675 271.234 282.675 274.806 C 279.825 274.806 277.253 274.806 274.233 274.713 Z"/>
    <path fill="#B76916" opacity="1.000000" stroke="none" style="stroke-width: 1;" d="M 255.196 265.721 C 255.63 268.45 255.638 271.096 255.641 274.188 C 252.98 274.667 250.323 274.698 247.233 274.623 C 246.783 271.919 246.765 269.319 246.802 266.297 C 249.495 265.796 252.132 265.717 255.196 265.721 Z"/>
    <path fill="#E3A756" opacity="1.000000" stroke="none" style="stroke-width: 1;" d="M 192.171 274.709 C 191.83 274.3 192 274.028 192.401 273.632 C 208.305 273.502 224.024 273.508 239.744 273.57 C 241.537 273.577 243.329 273.895 245.453 274.324 C 228.067 274.658 210.35 274.737 192.171 274.709 Z"/>
    <path fill="#DD881F" opacity="1.000000" stroke="none" style="stroke-width: 1;" d="M 228.804 265.549 C 223.989 265.543 219.173 265.444 214.361 265.562 C 211.004 265.644 210.68 263.668 210.675 261.05 C 210.67 258.414 211.072 256.144 214.372 256.628 C 219.742 257.417 219.965 254.099 220.213 249.854 C 224.598 248.165 227.565 248.28 227.009 253.76 C 226.952 254.329 227.883 254.999 228.454 255.857 C 228.621 256.246 228.69 256.402 228.746 257.007 C 228.757 260.154 228.78 262.851 228.804 265.549 Z"/>
    <path fill="#D88923" opacity="1.000000" stroke="none" style="stroke-width: 1;" d="M 192.721 239.104 C 195.462 238.684 198.115 238.62 201.194 238.638 C 201.647 239.383 201.818 240.08 201.674 240.703 C 201.156 242.944 201.162 245.833 199.74 247.163 C 198.682 248.153 194.541 247.866 193.869 246.812 C 192.639 244.883 192.958 241.965 192.721 239.104 Z"/>
    <path fill="#B76916" opacity="1.000000" stroke="none" style="stroke-width: 1;" d="M 229.254 265.563 C 228.78 262.851 228.757 260.154 229.21 257.014 C 232.225 256.575 234.763 256.579 237.269 256.58 C 237.237 256.579 237.238 256.514 237.367 256.771 C 237.59 257.194 237.683 257.361 237.777 257.528 C 237.73 259.559 237.683 261.59 237.492 264.168 C 237.202 264.914 237.072 265.123 236.958 265.341 C 234.54 265.42 232.121 265.498 229.254 265.563 Z"/>
    <path fill="#D38727" opacity="1.000000" stroke="none" style="stroke-width: 1;" d="M 219.446 239.64 C 219.534 241.98 219.622 244.321 219.749 247.1 C 219.14 247.546 218.493 247.56 217.845 247.559 C 210.669 247.554 210.669 247.554 211.228 239.975 C 214.275 239.563 216.861 239.601 219.446 239.64 Z"/>
    <path fill="#B27633" opacity="1.000000" stroke="none" style="stroke-width: 1;" d="M 228.355 255.622 C 227.883 254.999 226.952 254.329 227.009 253.76 C 227.565 248.28 224.598 248.165 220.261 249.408 C 219.857 248.984 219.834 248.56 219.82 247.817 C 222.29 247.497 224.75 247.497 228.048 247.497 C 228.048 244.466 228.048 241.885 228.403 238.899 C 229.033 238.665 229.326 238.799 229.655 239.293 C 229.813 246.923 230.615 247.519 237.646 245.867 C 237.751 246.646 237.757 247.098 237.771 247.531 C 237.779 247.511 237.819 247.524 237.53 247.606 C 237.046 247.742 236.853 247.794 236.221 247.812 C 233.547 247.778 231.312 247.778 228.994 247.778 C 228.749 250.781 228.552 253.202 228.355 255.622 Z"/>
    <path fill="#B27633" opacity="1.000000" stroke="none" style="stroke-width: 1;" d="M 219.317 239.249 C 216.861 239.601 214.275 239.563 211.257 239.529 C 210.549 239.386 210.296 239.207 209.913 238.821 C 212.903 238.716 216.045 238.787 219.317 239.249 Z"/>
    <path fill="#57361E" opacity="1.000000" stroke="none" style="stroke-width: 1;" d="M 237.177 265.392 C 237.072 265.123 237.202 264.914 237.494 264.603 C 237.64 264.491 237.81 264.925 237.825 265.158 C 237.841 265.391 237.395 265.443 237.177 265.392 Z"/>
    <path fill="#768187" opacity="1.000000" stroke="none" style="stroke-width: 1;" d="M 299.36 292.171 C 278.881 292.448 258.059 292.541 237.236 292.564 C 217.077 292.587 196.918 292.536 176.3 292.464 C 177.279 292.124 178.716 291.591 180.153 291.589 C 218.792 291.545 257.431 291.553 296.071 291.574 C 297.053 291.574 298.035 291.824 299.36 292.171 Z"/>
    <path fill="#D88923" opacity="1.000000" stroke="none" style="stroke-width: 1;" d="M 228.784 211.797 C 234.143 211.682 239.501 211.568 245.324 211.519 C 245.788 211.585 245.719 211.558 245.753 211.931 C 246.142 215.012 246.496 217.72 246.393 220.453 C 243.164 220.526 240.393 220.575 237.179 220.615 C 228.237 220.379 228.879 221.65 228.835 212.768 C 228.834 212.444 228.802 212.12 228.784 211.797 Z"/>
    <path fill="#B76916" opacity="1.000000" stroke="none" style="stroke-width: 1;" d="M 228.485 212.059 C 228.802 212.12 228.834 212.444 228.835 212.768 C 228.879 221.65 228.237 220.379 237.182 221.074 C 237.633 224.044 237.637 226.544 237.704 229.209 C 237.766 229.372 237.907 229.702 237.876 229.698 C 237.845 229.693 237.866 229.633 237.421 229.62 C 234.108 229.628 231.242 229.651 228.375 229.674 C 228.312 223.889 228.249 218.105 228.485 212.059 Z"/>
    <path fill="#EAA952" opacity="1.000000" stroke="none" style="stroke-width: 1;" d="M 228.274 230.103 C 231.242 229.651 234.108 229.628 237.331 230.058 C 237.595 233.2 237.504 235.89 236.989 238.572 C 234.255 238.675 231.946 238.786 229.636 238.897 C 229.326 238.799 229.033 238.665 228.519 238.449 C 228.245 235.779 228.209 233.156 228.274 230.103 Z"/>
    <path fill="#211B13" opacity="1.000000" stroke="none" style="stroke-width: 1;" d="M 220.756 202.697 C 227.787 202.635 234.819 202.574 242.313 202.596 C 243.607 204.291 244.438 205.903 245.333 207.638 C 243.143 206.386 241.571 204.79 239.882 204.654 C 235.269 204.283 230.603 204.655 225.966 204.484 C 222.631 204.362 221.657 205.864 221.721 208.967 C 221.858 215.576 221.763 222.189 221.763 228.8 C 221.29 228.807 220.818 228.813 220.345 228.819 C 220.345 221.301 220.345 213.783 220.118 205.922 C 219.84 205.125 219.79 204.67 219.994 203.771 C 220.466 203.156 220.635 202.946 220.756 202.697 Z"/>
    <path fill="#EAA952" opacity="1.000000" stroke="none" style="stroke-width: 1;" d="M 237.642 229.045 C 237.637 226.544 237.633 224.044 237.625 221.084 C 240.393 220.575 243.164 220.526 246.857 220.474 C 253.319 220.441 258.859 220.41 264.867 220.413 C 268.114 220.508 270.891 220.568 273.682 221.064 C 273.678 223.844 273.661 226.188 273.218 228.536 C 270.115 228.862 267.437 229.184 264.68 229.764 C 264.552 230.197 264.503 230.37 264.19 230.783 C 264.135 236.179 264.345 241.335 264.63 246.716 C 264.705 246.941 264.803 247.404 264.786 247.863 C 264.802 251.06 264.835 253.799 264.867 256.537 C 259.136 256.608 253.404 256.68 247.156 256.392 C 246.605 255.859 246.571 255.684 246.602 255.089 C 246.662 252.963 246.657 251.257 246.672 249.164 C 246.68 248.002 246.67 247.227 246.698 246.014 C 246.284 240.31 245.832 235.044 245.355 229.496 C 242.953 229.496 240.841 229.496 238.581 229.352 C 238.191 229.052 237.927 228.998 237.642 229.045 Z"/>
    <path fill="#D38727" opacity="1.000000" stroke="none" style="stroke-width: 1;" d="M 265.065 256.652 C 264.835 253.799 264.802 251.06 265.234 247.909 C 268.404 247.522 271.109 247.548 273.813 247.574 C 273.813 247.574 273.805 247.623 273.782 247.634 C 273.651 250.51 273.543 253.374 272.756 256.44 C 271.291 256.717 270.506 256.792 269.72 256.867 C 269.292 256.852 268.865 256.838 267.775 256.738 C 266.644 256.728 266.175 256.803 265.706 256.878 C 265.706 256.878 265.262 256.768 265.065 256.652 Z"/>
    <path fill="#D38727" opacity="1.000000" stroke="none" style="stroke-width: 1;" d="M 246.537 255.51 C 246.571 255.684 246.605 255.859 246.696 256.294 C 246.752 256.555 246.98 256.701 246.628 256.726 C 246.078 256.799 245.881 256.846 245.683 256.893 C 244.966 256.877 244.25 256.861 242.893 256.8 C 242.069 256.816 241.884 256.877 241.698 256.937 C 241.278 256.924 240.857 256.911 239.709 256.764 C 238.4 256.591 237.819 256.553 237.238 256.514 C 237.238 256.514 237.237 256.579 237.22 256.199 C 237.111 255.06 237.018 254.301 237.015 253.171 C 237.039 252.045 236.973 251.289 237.019 250.253 C 237.119 249.571 237.108 249.17 237.255 248.587 C 237.547 248.11 237.681 247.816 237.819 247.524 C 237.819 247.524 237.779 247.511 238.198 247.487 C 241.297 247.126 243.978 246.789 246.659 246.452 C 246.67 247.227 246.68 248.002 246.29 249.146 C 245.085 249.338 244.273 249.186 243.476 248.977 C 240.984 248.324 239.196 248.824 238.842 251.742 C 238.5 254.562 239.843 255.701 242.568 255.55 C 243.888 255.476 245.214 255.519 246.537 255.51 Z"/>
    <path fill="#57361E" opacity="1.000000" stroke="none" style="stroke-width: 1;" d="M 269.948 257.038 C 270.506 256.792 271.291 256.717 272.463 256.748 C 271.957 256.973 271.067 257.091 269.948 257.038 Z"/>
    <path fill="#57361E" opacity="1.000000" stroke="none" style="stroke-width: 1;" d="M 265.886 257.035 C 266.175 256.803 266.644 256.728 267.455 256.761 C 267.22 256.978 266.643 257.085 265.886 257.035 Z"/>
    <path fill="#57361E" opacity="1.000000" stroke="none" style="stroke-width: 1;" d="M 237.367 256.771 C 237.819 256.553 238.4 256.591 239.393 256.774 C 239.311 257.117 238.817 257.315 238.05 257.521 C 237.683 257.361 237.59 257.194 237.367 256.771 Z"/>
    <path fill="#57361E" opacity="1.000000" stroke="none" style="stroke-width: 1;" d="M 241.816 257.063 C 241.884 256.877 242.069 256.816 242.536 256.829 C 242.523 256.998 242.228 257.094 241.816 257.063 Z"/>
    <path fill="#57361E" opacity="1.000000" stroke="none" style="stroke-width: 1;" d="M 245.799 257.025 C 245.881 256.846 246.078 256.799 246.565 256.846 C 246.542 257.013 246.229 257.085 245.799 257.025 Z"/>
    <path fill="#D38727" opacity="1.000000" stroke="none" style="stroke-width: 1;" d="M 164.29 265.707 C 164.674 271.126 164.62 276.48 164.497 282.318 C 161.909 283.052 159.388 283.302 156.383 283.086 C 155.855 277.286 155.812 271.953 155.77 266.619 C 156.037 266.405 156.304 266.19 156.691 265.747 C 159.158 265.559 161.506 265.601 164.29 265.707 Z"/>
    <path fill="#0E0705" opacity="1.000000" stroke="none" style="stroke-width: 1;" d="M 155.502 266.596 C 155.812 271.953 155.855 277.286 155.979 283.076 C 155.981 291.898 155.902 300.263 155.74 309.089 C 155.656 309.551 155.208 309.556 154.984 309.088 C 154.76 304.485 154.887 300.347 154.725 296.22 C 154.545 291.665 154.099 287.119 153.769 282.569 C 153.974 277.52 154.178 272.471 154.546 267.049 C 154.884 266.642 155.059 266.607 155.502 266.596 Z"/>
    <path fill="#0E0F0E" opacity="1.000000" stroke="none" style="stroke-width: 1;" d="M 153.768 283.036 C 154.099 287.119 154.545 291.665 154.725 296.22 C 154.887 300.347 154.76 304.485 154.76 309.088 C 149.84 310.398 148.213 308.18 148.698 303.453 C 149.015 300.365 148.758 297.218 149.764 294.089 C 149.764 297.314 149.565 300.558 149.85 303.759 C 149.987 305.296 151.038 306.752 151.675 308.245 C 152.369 306.81 153.618 305.393 153.664 303.938 C 153.88 297.132 153.764 290.316 153.768 283.036 Z"/>
    <path fill="#D88923" opacity="1.000000" stroke="none" style="stroke-width: 1;" d="M 273.668 220.628 C 270.891 220.568 268.114 220.508 264.879 219.97 C 264.546 216.823 264.67 214.154 264.794 211.485 C 264.794 211.485 264.81 211.555 264.776 211.566 C 270.15 211.556 275.557 211.535 281.408 212.045 C 281.845 213.409 281.73 214.259 281.852 215.072 C 282.53 219.597 280.433 221.166 276.164 220.586 C 275.349 220.475 274.501 220.608 273.668 220.628 Z"/>
    <path fill="#B76916" opacity="1.000000" stroke="none" style="stroke-width: 1;" d="M 273.682 221.064 C 274.501 220.608 275.349 220.475 276.164 220.586 C 280.433 221.166 282.53 219.597 281.852 215.072 C 281.73 214.259 281.845 213.409 281.876 212.138 C 282.158 217.334 282.415 222.968 282.595 229.054 C 282.518 229.506 282.127 229.617 281.487 229.594 C 278.459 229.568 276.072 229.567 273.714 229.559 C 273.745 229.553 273.749 229.614 273.749 229.341 C 273.714 228.89 273.679 228.711 273.644 228.533 C 273.661 226.188 273.678 223.844 273.682 221.064 Z"/>
    <path fill="#EAA952" opacity="1.000000" stroke="none" style="stroke-width: 1;" d="M 273.684 229.565 C 276.072 229.567 278.459 229.568 281.287 229.631 C 281.736 233.008 281.756 236.324 281.748 239.64 C 281.732 246.783 281.561 246.92 273.99 245.206 C 273.554 241.628 273.476 238.607 273.458 235.174 C 273.458 233.381 273.398 232 273.442 230.362 C 273.593 229.925 273.639 229.745 273.684 229.565 Z"/>
    <path fill="#57361E" opacity="1.000000" stroke="none" style="stroke-width: 1;" d="M 273.397 235.586 C 273.476 238.607 273.554 241.628 273.707 245.098 C 273.736 246 273.692 246.453 273.73 247.24 C 271.109 247.548 268.404 247.522 265.251 247.45 C 264.803 247.404 264.705 246.941 264.693 246.275 C 264.738 242.923 264.795 240.238 265.185 237.721 C 268.706 239.042 271.6 239.189 273.397 235.586 Z"/>
    <path fill="#090605" opacity="1.000000" stroke="none" style="stroke-width: 1;" d="M 220.517 202.642 C 220.635 202.946 220.466 203.156 220.075 203.435 C 219.901 203.543 219.798 203.109 219.796 202.887 C 219.794 202.664 220.278 202.587 220.517 202.642 Z"/>
    <path fill="#100A06" opacity="1.000000" stroke="none" style="stroke-width: 1;" d="M 264.325 211.52 C 264.67 214.154 264.546 216.823 264.411 219.936 C 258.859 220.41 253.319 220.441 247.315 220.45 C 246.496 217.72 246.142 215.012 245.764 211.896 C 251.779 211.51 257.817 211.533 264.325 211.52 Z"/>
    <path fill="#1F0A05" opacity="1.000000" stroke="none" style="stroke-width: 1;" d="M 237.096 248.769 C 237.108 249.17 237.119 249.571 236.653 250.2 C 234.728 249.865 233.282 249.305 230.624 248.274 C 231.052 251.163 231.335 253.069 231.617 254.976 C 233.386 254.498 235.156 254.02 236.925 253.542 C 237.018 254.301 237.111 255.06 237.253 256.201 C 234.763 256.579 232.225 256.575 229.222 256.565 C 228.69 256.402 228.621 256.246 228.454 255.857 C 228.552 253.202 228.749 250.781 228.994 247.778 C 231.312 247.778 233.547 247.778 236.296 248.058 C 236.905 248.482 237.001 248.626 237.096 248.769 Z"/>
    <path fill="#3A1E13" opacity="1.000000" stroke="none" style="stroke-width: 1;" d="M 246.698 246.014 C 243.978 246.789 241.297 247.126 238.19 247.506 C 237.757 247.098 237.751 246.646 237.698 245.469 C 237.623 243.68 237.594 242.616 237.625 241.301 C 237.647 240.884 237.609 240.717 237.602 240.218 C 237.559 239.45 237.486 239.015 237.412 238.58 C 237.504 235.89 237.595 233.2 237.776 230.072 C 237.866 229.633 237.845 229.693 238.087 229.67 C 238.329 229.647 238.729 229.496 238.729 229.496 C 240.841 229.496 242.953 229.496 245.355 229.496 C 245.832 235.044 246.284 240.31 246.698 246.014 M 239.009 245.179 C 241.877 246.661 244.251 246.216 244.561 242.757 C 244.677 241.468 243.033 239.004 241.893 238.808 C 238.326 238.193 238.805 241.168 238.755 243.432 C 238.748 243.76 238.795 244.089 239.009 245.179 Z"/>
    <path fill="#DD881F" opacity="1.000000" stroke="none" style="stroke-width: 1;" d="M 237.566 241.551 C 237.594 242.616 237.623 243.68 237.6 245.143 C 230.615 247.519 229.813 246.923 229.655 239.293 C 231.946 238.786 234.255 238.675 236.989 238.572 C 237.486 239.015 237.559 239.45 237.486 240.321 C 237.195 241.079 237.271 241.344 237.566 241.551 Z"/>
    <path fill="#57361E" opacity="1.000000" stroke="none" style="stroke-width: 1;" d="M 237.255 248.587 C 237.001 248.626 236.905 248.482 236.734 248.093 C 236.853 247.794 237.046 247.742 237.53 247.606 C 237.681 247.816 237.547 248.11 237.255 248.587 Z"/>
    <path fill="#B27633" opacity="1.000000" stroke="none" style="stroke-width: 1;" d="M 238.581 229.352 C 238.729 229.496 238.329 229.647 238.118 229.675 C 237.907 229.702 237.766 229.372 237.704 229.209 C 237.927 228.998 238.191 229.052 238.581 229.352 Z"/>
    <path fill="#DD881F" opacity="1.000000" stroke="none" style="stroke-width: 1;" d="M 246.602 255.089 C 245.214 255.519 243.888 255.476 242.568 255.55 C 239.843 255.701 238.5 254.562 238.842 251.742 C 239.196 248.824 240.984 248.324 243.476 248.977 C 244.273 249.186 245.085 249.338 246.271 249.533 C 246.657 251.257 246.662 252.963 246.602 255.089 Z"/>
    <path fill="#E3A756" opacity="1.000000" stroke="none" style="stroke-width: 1;" d="M 264.852 237.553 C 264.795 240.238 264.738 242.923 264.618 246.05 C 264.345 241.335 264.135 236.179 264.295 231.038 C 264.725 231.226 264.786 231.398 264.886 231.904 C 264.901 234.009 264.876 235.781 264.852 237.553 Z"/>
    <path fill="#57361E" opacity="1.000000" stroke="none" style="stroke-width: 1;" d="M 264.846 231.571 C 264.786 231.398 264.725 231.226 264.56 230.798 C 264.503 230.37 264.552 230.197 265.129 229.767 C 268.355 229.545 271.052 229.58 273.749 229.614 C 273.749 229.614 273.745 229.553 273.714 229.559 C 273.639 229.745 273.593 229.925 273.052 230.345 C 269.986 230.914 267.416 231.243 264.846 231.571 Z"/>
    <path fill="#E3A756" opacity="1.000000" stroke="none" style="stroke-width: 1;" d="M 273.749 229.341 C 271.052 229.58 268.355 229.545 265.209 229.509 C 267.437 229.184 270.115 228.862 273.218 228.536 C 273.679 228.711 273.714 228.89 273.749 229.341 Z"/>
    <path fill="#090605" opacity="1.000000" stroke="none" style="stroke-width: 1;" d="M 237.015 253.171 C 235.156 254.02 233.386 254.498 231.617 254.976 C 231.335 253.069 231.052 251.163 230.624 248.274 C 233.282 249.305 234.728 249.865 236.54 250.48 C 236.973 251.289 237.039 252.045 237.015 253.171 Z"/>
    <path fill="#3A1E13" opacity="1.000000" stroke="none" style="stroke-width: 1;" d="M 264.886 231.904 C 267.416 231.243 269.986 230.914 272.946 230.603 C 273.398 232 273.458 233.381 273.458 235.174 C 271.6 239.189 268.706 239.042 265.185 237.721 C 264.876 235.781 264.901 234.009 264.886 231.904 Z"/>
    <path fill="#57361E" opacity="1.000000" stroke="none" style="stroke-width: 1;" d="M 238.913 244.798 C 238.795 244.089 238.748 243.76 238.755 243.432 C 238.805 241.168 238.326 238.193 241.893 238.808 C 243.033 239.004 244.677 241.468 244.561 242.757 C 244.251 246.216 241.877 246.661 238.913 244.798 Z"/>
    <path fill="#B27633" opacity="1.000000" stroke="none" style="stroke-width: 1;" d="M 237.625 241.301 C 237.271 241.344 237.195 241.079 237.455 240.653 C 237.609 240.717 237.647 240.884 237.625 241.301 Z"/>
  </g>
</svg>