<?xml version="1.0" encoding="utf-8"?>
<svg xmlns="http://www.w3.org/2000/svg" viewBox="0 0 500 500">
  <g id="Layer_1" transform="matrix(1.791047, 0, 0, 1.974826, -493.965637, -257.295441)" style="">
    <path fill="#0D0703" opacity="1.000000" stroke="none" style="stroke-width: 1;" d="M 463.751 275.731 C 463.751 275.731 463.775 275.965 463.504 276.402 C 463.128 278.98 463.023 281.121 462.46 283.409 C 429.429 283.555 396.857 283.555 363.749 283.555 C 363.749 287.189 363.749 289.99 363.304 292.748 C 360.459 292.633 358.059 292.561 355.632 292.084 C 355.451 289.579 355.298 287.479 355.17 285.085 C 355.098 284.411 355.002 284.032 354.945 283.709 C 354.983 283.763 355.098 283.695 355.213 283.531 C 355.401 283.073 355.319 282.833 355.161 282.285 C 355.194 281.437 355.147 280.95 355.229 280.169 C 355.273 279.467 355.187 279.059 355.174 278.283 C 355.198 277.423 355.149 276.93 355.363 276.119 C 358.642 275.419 361.66 275.036 364.895 274.721 C 365.111 274.788 365.563 274.74 365.717 274.868 C 366.237 274.909 366.603 274.823 367.42 274.787 C 372.452 274.746 377.034 274.653 381.895 274.643 C 382.365 274.681 382.555 274.636 383.201 274.713 C 392.356 274.753 401.054 274.672 410.183 274.694 C 412.679 274.749 414.744 274.701 417.232 274.654 C 417.886 271.565 418.115 268.476 418.461 265.151 C 418.638 264.751 418.698 264.586 419.081 264.695 C 421.862 265.49 424.319 266.012 426.879 266.555 C 426.978 267.664 427.261 268.664 427.117 269.598 C 426.411 274.159 428.591 275.496 432.725 274.863 C 433.363 274.765 434.035 274.893 434.802 275.051 C 435.226 275.13 435.541 275.076 435.937 274.891 C 436.018 274.761 435.772 274.578 436.205 274.699 C 439.322 274.889 442.005 274.959 444.801 275.172 C 445.222 275.219 445.531 275.121 446.257 274.98 C 448.351 274.965 450.027 274.994 451.88 275.192 C 452.646 275.241 453.234 275.122 454.092 274.927 C 454.531 274.774 454.701 274.696 455.299 274.736 C 458.394 274.726 461.06 274.597 463.654 274.785 C 463.639 275.312 463.695 275.521 463.751 275.731 Z"/>
    <path fill="#80817F" opacity="1.000000" stroke="none" style="stroke-width: 1;" d="M 363.749 292.791 C 363.749 289.99 363.749 287.189 363.749 283.555 C 396.857 283.555 429.429 283.555 462.642 283.43 C 463.282 283.305 463.644 283.223 463.644 283.223 C 467.791 283.295 471.983 283.779 476.076 283.34 C 482.062 282.698 483.674 285.369 482.449 291.091 C 481.961 291.509 481.794 291.508 481.171 291.519 C 451.847 291.537 422.979 291.526 394.112 291.588 C 392.017 291.593 389.922 292.126 387.432 292.447 C 385.602 292.868 384.166 293.253 382.73 293.639 C 382.73 293.639 382.833 293.531 382.614 293.557 C 382.213 293.562 382.032 293.541 381.398 293.365 C 376.649 293.205 372.326 292.939 368.068 293.345 C 366.711 293.475 365.524 295.389 363.97 296.497 C 363.704 295.268 363.727 294.029 363.749 292.791 Z"/>
    <path fill="#EBA851" opacity="1.000000" stroke="none" style="stroke-width: 1;" d="M 382.744 274.591 C 382.555 274.636 382.365 274.681 381.947 274.192 C 382.176 268.953 382.541 264.447 375.378 265.3 C 374.685 265.383 373.044 262.899 372.937 261.521 C 372.578 256.929 372.717 252.297 372.789 247.239 C 372.915 244.076 372.918 241.353 372.92 238.631 C 372.92 238.631 373.347 238.559 373.997 238.549 C 377.061 238.599 379.475 238.659 381.858 239.159 C 381.815 240.093 381.75 240.591 381.799 241.078 C 382.079 243.891 380.465 247.478 385.818 247.686 C 390.841 247.881 391.036 245.154 390.919 241.541 C 390.888 240.604 391.396 239.651 392.106 238.629 C 394.988 238.603 397.419 238.652 399.841 239.16 C 399.832 241.949 399.817 244.28 399.837 246.611 C 399.936 258.097 398.529 256.4 409.488 256.945 C 409.582 260.34 409.703 263.341 409.671 266.717 C 409.3 269.229 409.082 271.366 408.386 273.516 C 404.087 273.535 400.259 273.41 396.445 273.581 C 391.872 273.786 387.311 274.243 382.744 274.591 Z"/>
    <path fill="#090605" opacity="1.000000" stroke="none" style="stroke-width: 1;" d="M 399.85 238.702 C 397.419 238.652 394.988 238.603 391.672 238.547 C 387.821 238.601 384.855 238.66 381.888 238.719 C 379.475 238.659 377.061 238.599 374.2 238.473 C 373.757 235.805 373.761 233.203 374.23 230.102 C 384.728 229.609 394.761 229.651 404.794 229.576 C 406.084 229.566 407.369 228.941 408.656 228.601 C 409.026 226.258 409.395 223.915 410.227 221.079 C 419.069 220.588 427.447 220.59 435.825 220.593 C 435.825 220.593 435.743 220.564 435.883 220.954 C 436.032 224.076 436.042 226.807 435.561 229.527 C 430.62 229.494 426.16 229.63 421.721 229.397 C 418.414 229.224 417.653 230.704 418.131 233.878 C 418.094 234.65 418.173 235.097 418.192 235.916 C 418.198 237.034 418.265 237.78 418.199 238.97 C 418.141 242.21 418.217 245.006 418.219 248.23 C 418.247 251.264 418.347 253.87 418.321 256.911 C 418.172 260.053 418.15 262.761 417.825 265.531 C 417.261 265.891 417 266.19 416.306 266.496 C 413.857 266.449 411.84 266.395 409.824 266.342 C 409.703 263.341 409.582 260.34 409.512 256.48 C 409.562 250.031 409.562 244.441 409.562 238.702 C 405.8 238.702 402.825 238.702 399.85 238.702 Z"/>
    <path fill="#E3A756" opacity="1.000000" stroke="none" style="stroke-width: 1;" d="M 363.304 292.748 C 363.727 294.029 363.704 295.268 364.022 296.959 C 364.494 298.776 364.624 300.141 364.752 301.486 C 367.822 301.652 370.37 301.789 373.17 301.94 C 373.309 305.102 373.429 307.853 373.552 310.856 C 373.615 311.263 373.674 311.42 373.734 311.576 C 373.734 311.576 373.732 311.524 373.515 311.445 C 373.126 311.37 372.956 311.373 372.323 311.321 C 366.547 311.274 361.234 311.282 355.812 311.061 C 355.417 310.649 355.132 310.467 354.852 309.851 C 354.857 307.213 354.857 305.008 354.857 302.714 C 351.65 302.714 349.212 302.714 346.773 302.714 C 346.773 302.714 346.371 302.528 346.111 302.04 C 345.917 295.565 345.983 289.576 346.485 283.592 C 349.583 283.615 352.245 283.634 354.907 283.654 C 355.002 284.032 355.098 284.411 355.033 285.489 C 355.135 288.288 355.398 290.389 355.66 292.489 C 358.059 292.561 360.459 292.633 363.304 292.748 Z"/>
    <path fill="#0B0604" opacity="1.000000" stroke="none" style="stroke-width: 1;" d="M 345.729 265.398 C 346.249 262.836 346.77 260.274 347.379 257.278 C 353.106 258.431 356.104 256.562 356.054 249.905 C 356.025 245.907 360.222 248.127 363.031 247.548 C 363.558 247.587 363.777 247.617 363.762 247.871 C 363.835 248.269 363.923 248.414 363.972 248.898 C 363.955 249.69 363.978 250.142 363.9 251.031 C 363.865 254.148 363.93 256.83 363.946 259.853 C 363.928 260.651 363.961 261.109 363.893 261.931 C 363.855 263.046 363.917 263.795 363.911 264.785 C 363.806 265.19 363.77 265.353 363.283 265.537 C 359.831 265.617 356.832 265.677 353.389 265.68 C 350.594 265.692 348.241 265.76 345.859 265.717 C 345.83 265.605 345.729 265.398 345.729 265.398 Z"/>
    <path fill="#020303" opacity="1.000000" stroke="none" style="stroke-width: 1;" d="M 346.049 283.588 C 345.983 289.576 345.917 295.565 345.891 302.014 C 345.27 302.497 338.242 302.271 337.58 302.276 C 336.02 302.287 337.548 302.371 337.712 302.081 C 338.228 301.164 341.197 276.358 342.572 272.528 C 343.701 274.009 343.591 281.642 344.709 283.108 C 345.12 282.936 343.071 298.904 343.481 298.732 C 343.837 290.722 344.219 282.711 342.456 274.856 C 341.896 274.854 344.447 298.865 343.886 298.863 C 343.079 301.673 338.944 299.759 337.796 302.21 C 337.455 296.638 337.672 272.136 337.672 266.579 C 340.879 266.579 343.321 266.579 345.799 267.043 C 345.907 272.868 345.978 278.228 346.049 283.588 Z"/>
    <path fill="#7E878C" opacity="1.000000" stroke="none" style="stroke-width: 1;" d="M 489.786 285.038 C 492.558 280.789 496.046 284.357 499.156 283.941 C 499.437 283.904 500.441 287.516 500.707 289.488 C 501.305 293.932 498.132 293.543 495.236 293.559 C 492.3 293.576 489.326 293.871 489.748 289.437 C 489.873 288.126 489.77 286.793 489.786 285.038 Z"/>
    <path fill="#7E878C" opacity="1.000000" stroke="none" style="stroke-width: 1;" d="M 336.726 283.488 C 336.726 286.621 336.726 289.753 336.726 292.817 C 327.609 294.795 326.356 293.78 326.979 285.017 C 329.962 284.628 332.987 284.234 336.401 283.672 C 336.789 283.503 336.726 283.488 336.726 283.488 Z"/>
    <path fill="#090605" opacity="1.000000" stroke="none" style="stroke-width: 1;" d="M 346.986 302.994 C 349.212 302.714 351.65 302.714 354.857 302.714 C 354.857 305.008 354.857 307.213 354.608 309.991 C 354.202 310.882 354.044 311.2 353.887 311.518 C 351.452 311.085 346.74 313.218 345.583 309.858 C 348.065 308.787 345.287 303.984 347.295 303.118 C 347.121 302.642 353.069 305.801 352.895 305.325 C 350.996 304.641 349.098 303.957 346.986 302.994 Z"/>
    <path fill="#05070A" opacity="1.000000" stroke="none" style="stroke-width: 1;" d="M 365.746 243.566 C 365.426 242.46 365.106 241.354 365.2 239.903 C 367.363 239.65 369.112 239.742 371.691 239.877 C 370.739 242.493 370.05 244.385 369.362 246.277 C 368.157 245.373 366.951 244.469 365.746 243.566 Z"/>
    <path fill="#211B13" opacity="1.000000" stroke="none" style="stroke-width: 1;" d="M 365.75 243.897 C 366.951 244.469 368.157 245.373 369.362 246.277 C 370.05 244.385 370.739 242.493 371.691 239.877 C 369.112 239.742 367.363 239.65 365.208 239.542 C 367.217 239.206 369.632 238.887 372.483 238.6 C 372.918 241.353 372.915 244.076 372.375 247.222 C 370.441 247.686 369.044 247.725 367.271 247.679 C 365.856 247.603 364.817 247.61 363.777 247.617 C 363.777 247.617 363.558 247.587 363.449 247.554 C 363.656 247.282 363.971 247.044 364.738 246.541 C 365.436 246.081 365.622 245.84 365.749 245.552 C 365.751 245.111 365.752 244.669 365.75 243.897 Z"/>
    <path fill="#57361E" opacity="1.000000" stroke="none" style="stroke-width: 1;" d="M 463.7 282.805 C 463.644 283.223 463.282 283.305 463.1 283.284 C 463.023 281.121 463.128 278.98 463.508 276.519 C 463.775 278.262 463.766 280.324 463.7 282.805 Z"/>
    <path fill="#020303" opacity="1.000000" stroke="none" style="stroke-width: 1;" d="M 339.254 285.039 C 339.277 285.03 339.23 285.049 339.254 285.039 Z"/>
    <path fill="#05070A" opacity="1.000000" stroke="none" style="stroke-width: 1;" d="M 365.56 245.68 C 365.622 245.84 365.436 246.081 364.991 246.392 C 364.94 246.238 365.133 246.005 365.56 245.68 Z"/>
    <path fill="#EAA952" opacity="1.000000" stroke="none" style="stroke-width: 1;" d="M 418.448 256.476 C 418.347 253.87 418.247 251.264 418.632 248.153 C 427.511 247.257 427.511 247.257 428.015 238.646 C 431.248 238.58 434.018 238.535 437.254 238.514 C 443.271 238.498 448.821 238.458 454.851 238.446 C 458.149 238.51 460.967 238.547 463.767 239.033 C 463.657 247.719 463.657 247.719 471.973 247.448 C 472.137 247.442 472.3 247.427 472.564 247.874 C 472.706 251.062 472.748 253.793 472.763 256.512 C 472.737 256.502 472.713 256.555 472.385 256.662 C 471.61 256.878 471.162 256.987 470.49 257.01 C 470.265 256.923 469.814 257.092 469.351 257.023 C 464.496 257.014 460.105 257.074 455.543 257.05 C 455.073 257.057 454.958 257.257 454.918 257.988 C 454.818 260.746 454.83 263.079 454.818 265.873 C 454.82 269.095 454.846 271.857 454.871 274.619 C 454.701 274.696 454.531 274.774 453.745 274.803 C 452.654 274.844 452.179 274.934 451.703 275.023 C 450.027 274.994 448.351 274.965 445.969 274.88 C 445.072 274.891 444.88 274.96 444.689 275.029 C 442.005 274.959 439.322 274.889 436.349 274.34 C 436.948 271.164 437.838 268.467 439.175 265.732 C 441.401 265.694 443.18 265.694 444.849 265.694 C 446.441 257.026 446.226 256.753 438.509 256.745 C 435.02 256.741 431.53 256.704 427.66 256.652 C 426.772 256.644 426.265 256.665 425.345 256.652 C 422.771 256.57 420.609 256.523 418.448 256.476 Z"/>
    <path fill="#DD881F" opacity="1.000000" stroke="none" style="stroke-width: 1;" d="M 367.648 247.763 C 369.044 247.725 370.441 247.686 372.251 247.664 C 372.717 252.297 372.578 256.929 372.937 261.521 C 373.044 262.899 374.685 265.383 375.378 265.3 C 382.541 264.447 382.176 268.953 381.667 274.11 C 377.034 274.653 372.452 274.746 367.068 274.727 C 366.031 274.657 365.797 274.699 365.563 274.74 C 365.563 274.74 365.111 274.788 364.901 274.284 C 364.372 271.025 364.053 268.271 363.734 265.517 C 363.77 265.353 363.806 265.19 364.091 264.572 C 364.224 263.267 364.109 262.416 363.994 261.566 C 363.961 261.109 363.928 260.651 364.146 259.53 C 364.265 256.11 364.133 253.352 364.001 250.595 C 363.978 250.142 363.955 249.69 364.296 248.908 C 365.656 248.308 366.652 248.036 367.648 247.763 Z"/>
    <path fill="#D88923" opacity="1.000000" stroke="none" style="stroke-width: 1;" d="M 345.799 267.043 C 345.763 266.579 345.904 266.217 345.896 266.023 C 348.241 265.76 350.594 265.692 353.557 266.03 C 354.478 269.771 354.79 273.103 355.101 276.436 C 355.149 276.93 355.198 277.423 355.064 278.447 C 354.955 279.472 355.027 279.967 355.1 280.462 C 355.147 280.95 355.194 281.437 355.078 282.454 C 354.858 283.251 354.919 283.488 355.098 283.695 C 355.098 283.695 354.983 283.763 354.945 283.709 C 352.245 283.634 349.583 283.615 346.485 283.592 C 345.978 278.228 345.907 272.868 345.799 267.043 Z"/>
    <path fill="#D38727" opacity="1.000000" stroke="none" style="stroke-width: 1;" d="M 438.728 265.77 C 437.838 268.467 436.948 271.164 435.915 274.219 C 435.772 274.578 436.018 274.761 435.654 274.775 C 435.09 274.832 434.89 274.874 434.691 274.917 C 434.035 274.893 433.363 274.765 432.725 274.863 C 428.591 275.496 426.411 274.159 427.117 269.598 C 427.261 268.664 426.978 267.664 426.879 266.555 C 424.319 266.012 421.862 265.49 419.39 264.487 C 422.042 263.521 424.708 263.036 427.474 262.971 C 428.732 264.136 429.821 265.344 431.063 265.529 C 433.574 265.903 436.168 265.722 438.728 265.77 Z"/>
    <path fill="#B76916" opacity="1.000000" stroke="none" style="stroke-width: 1;" d="M 355.363 276.119 C 354.79 273.103 354.478 269.771 354 266.087 C 356.832 265.677 359.831 265.617 363.282 265.537 C 364.053 268.271 364.372 271.025 364.684 274.216 C 361.66 275.036 358.642 275.419 355.363 276.119 Z"/>
    <path fill="#D38727" opacity="1.000000" stroke="none" style="stroke-width: 1;" d="M 455.299 274.736 C 454.846 271.857 454.82 269.095 455.261 265.912 C 458.398 265.515 461.069 265.54 463.729 266.016 C 463.715 269.172 463.711 271.879 463.707 274.585 C 463.707 274.585 463.675 274.519 463.7 274.494 C 461.06 274.597 458.394 274.726 455.299 274.736 Z"/>
    <path fill="#DD881F" opacity="1.000000" stroke="none" style="stroke-width: 1;" d="M 409.671 266.717 C 411.84 266.395 413.857 266.449 416.402 266.799 C 416.889 269.614 416.849 272.133 416.808 274.653 C 414.744 274.701 412.679 274.749 410.079 274.479 C 409.377 273.88 409.15 273.661 408.864 273.503 C 409.082 271.366 409.3 269.229 409.671 266.717 Z"/>
    <path fill="#DD881F" opacity="1.000000" stroke="none" style="stroke-width: 1;" d="M 427.374 262.551 C 424.708 263.036 422.042 263.521 419.067 264.214 C 418.698 264.586 418.638 264.751 418.392 265.13 C 418.206 265.345 418.127 265.469 418.127 265.469 C 418.15 262.761 418.172 260.053 418.321 256.911 C 420.609 256.523 422.771 256.57 425.348 256.985 C 426.308 258.421 426.852 259.49 427.453 260.889 C 427.465 261.664 427.419 262.107 427.374 262.551 Z"/>
    <path fill="#E3A756" opacity="1.000000" stroke="none" style="stroke-width: 1;" d="M 408.386 273.516 C 409.15 273.661 409.377 273.88 409.648 274.375 C 401.054 274.672 392.356 274.753 383.201 274.713 C 387.311 274.243 391.872 273.786 396.445 273.581 C 400.259 273.41 404.087 273.535 408.386 273.516 Z"/>
    <path fill="#A66419" opacity="1.000000" stroke="none" style="stroke-width: 1;" d="M 417.825 265.531 C 418.127 265.469 418.206 265.345 418.275 265.366 C 418.115 268.476 417.886 271.565 417.232 274.654 C 416.849 272.133 416.889 269.614 416.834 266.792 C 417 266.19 417.261 265.891 417.825 265.531 Z"/>
    <path fill="#B76916" opacity="1.000000" stroke="none" style="stroke-width: 1;" d="M 355.632 292.084 C 355.398 290.389 355.135 288.288 355.009 285.784 C 355.298 287.479 355.451 289.579 355.632 292.084 Z"/>
    <path fill="#B76916" opacity="1.000000" stroke="none" style="stroke-width: 1;" d="M 355.229 280.169 C 355.027 279.967 354.955 279.472 354.992 278.813 C 355.187 279.059 355.273 279.467 355.229 280.169 Z"/>
    <path fill="#57361E" opacity="1.000000" stroke="none" style="stroke-width: 1;" d="M 451.88 275.192 C 452.179 274.934 452.654 274.844 453.476 274.879 C 453.234 275.122 452.646 275.241 451.88 275.192 Z"/>
    <path fill="#57361E" opacity="1.000000" stroke="none" style="stroke-width: 1;" d="M 444.801 275.172 C 444.88 274.96 445.072 274.891 445.552 274.923 C 445.531 275.121 445.222 275.219 444.801 275.172 Z"/>
    <path fill="#A66419" opacity="1.000000" stroke="none" style="stroke-width: 1;" d="M 365.717 274.868 C 365.797 274.699 366.031 274.657 366.617 274.676 C 366.603 274.823 366.237 274.909 365.717 274.868 Z"/>
    <path fill="#57361E" opacity="1.000000" stroke="none" style="stroke-width: 1;" d="M 434.802 275.051 C 434.89 274.874 435.09 274.832 435.572 274.905 C 435.541 275.076 435.226 275.13 434.802 275.051 Z"/>
    <path fill="#B76916" opacity="1.000000" stroke="none" style="stroke-width: 1;" d="M 355.213 283.531 C 354.919 283.488 354.858 283.251 354.998 282.815 C 355.319 282.833 355.401 283.073 355.213 283.531 Z"/>
    <path fill="#090605" opacity="1.000000" stroke="none" style="stroke-width: 1;" d="M 381.398 293.365 C 381.85 299.078 381.85 304.634 381.85 310.616 C 379.032 310.616 376.766 310.616 374.025 310.61 C 373.429 307.853 373.309 305.102 373.17 301.94 C 370.37 301.789 367.822 301.652 364.752 301.486 C 364.624 300.141 364.494 298.776 364.312 296.949 C 365.524 295.389 366.711 293.475 368.068 293.345 C 372.326 292.939 376.649 293.205 381.398 293.365 Z"/>
    <path fill="#768187" opacity="1.000000" stroke="none" style="stroke-width: 1;" d="M 481.171 291.519 C 480.074 291.864 478.521 292.528 476.967 292.53 C 447.56 292.568 418.154 292.528 388.288 292.458 C 389.922 292.126 392.017 291.593 394.112 291.588 C 422.979 291.526 451.847 291.537 481.171 291.519 Z"/>
    <path fill="#D88923" opacity="1.000000" stroke="none" style="stroke-width: 1;" d="M 399.841 239.16 C 402.825 238.702 405.8 238.702 409.562 238.702 C 409.562 244.441 409.562 250.031 409.538 256.086 C 398.529 256.4 399.936 258.097 399.837 246.611 C 399.817 244.28 399.832 241.949 399.841 239.16 Z"/>
    <path fill="#D88923" opacity="1.000000" stroke="none" style="stroke-width: 1;" d="M 381.858 239.159 C 384.855 238.66 387.821 238.601 391.222 238.623 C 391.396 239.651 390.888 240.604 390.919 241.541 C 391.036 245.154 390.841 247.881 385.818 247.686 C 380.465 247.478 382.079 243.891 381.799 241.078 C 381.75 240.591 381.815 240.093 381.858 239.159 Z"/>
    <path fill="#D38727" opacity="1.000000" stroke="none" style="stroke-width: 1;" d="M 436.787 238.491 C 434.018 238.535 431.248 238.58 427.619 238.633 C 423.95 238.603 421.141 238.564 418.332 238.526 C 418.265 237.78 418.198 237.034 418.333 235.743 C 418.439 234.649 418.344 234.101 418.248 233.553 C 417.653 230.704 418.414 229.224 421.721 229.397 C 426.16 229.63 430.62 229.494 435.561 229.527 C 436.051 229.537 436.287 229.572 436.441 230.071 C 436.659 233.21 436.723 235.85 436.787 238.491 Z"/>
    <path fill="#A66419" opacity="1.000000" stroke="none" style="stroke-width: 1;" d="M 418.199 238.97 C 421.141 238.564 423.95 238.603 427.155 238.654 C 427.511 247.257 427.511 247.257 418.705 247.726 C 418.217 245.006 418.141 242.21 418.199 238.97 Z"/>
    <path fill="#A66419" opacity="1.000000" stroke="none" style="stroke-width: 1;" d="M 418.131 233.878 C 418.344 234.101 418.439 234.649 418.393 235.371 C 418.173 235.097 418.094 234.65 418.131 233.878 Z"/>
    <path fill="#020303" opacity="1.000000" stroke="none" style="stroke-width: 1;" d="M 355.913 317.513 C 355.873 315.735 355.833 313.958 355.857 311.735 C 361.234 311.282 366.547 311.274 372.323 311.321 C 372.778 312.168 372.771 312.961 372.427 313.887 C 365.637 310.487 357.808 312.178 355.913 317.513 Z"/>
    <path fill="#B76916" opacity="1.000000" stroke="none" style="stroke-width: 1;" d="M 363.9 251.031 C 364.133 253.352 364.265 256.11 364.196 259.189 C 363.93 256.83 363.865 254.148 363.9 251.031 Z"/>
    <path fill="#B76916" opacity="1.000000" stroke="none" style="stroke-width: 1;" d="M 367.271 247.679 C 366.652 248.036 365.656 248.308 364.336 248.569 C 363.923 248.414 363.835 248.269 363.762 247.871 C 364.817 247.61 365.856 247.603 367.271 247.679 Z"/>
    <path fill="#B76916" opacity="1.000000" stroke="none" style="stroke-width: 1;" d="M 363.893 261.931 C 364.109 262.416 364.224 263.267 364.159 264.331 C 363.917 263.795 363.855 263.046 363.893 261.931 Z"/>
    <path fill="#05070A" opacity="1.000000" stroke="none" style="stroke-width: 1;" d="M 454.921 228.498 C 454.883 226.124 454.844 223.751 454.762 220.934 C 463.476 220.49 472.236 220.49 481.301 220.49 C 481.301 235.605 481.301 250.282 481.301 265.552 C 478.795 265.552 476.21 265.552 473.182 265.524 C 472.738 265.495 472.721 265.521 472.722 265.088 C 472.707 262.639 472.691 260.624 472.717 258.266 C 472.744 257.468 472.729 257.011 472.713 256.555 C 472.713 256.555 472.737 256.502 473.096 256.417 C 473.766 248.134 474.098 239.936 474.323 231.735 C 474.334 231.364 473.377 230.966 472.744 230.324 C 472.338 229.81 472.059 229.554 471.614 228.953 C 465.939 228.572 460.43 228.535 454.921 228.498 Z"/>
    <path fill="#090605" opacity="1.000000" stroke="none" style="stroke-width: 1;" d="M 464.174 274.586 C 463.711 271.879 463.715 269.172 463.75 266.042 C 463.782 265.617 463.838 265.582 464.281 265.593 C 467.39 265.576 470.055 265.549 472.721 265.521 C 472.721 265.521 472.738 265.495 472.724 265.484 C 472.638 267.989 472.568 270.504 472.358 273.46 C 472.219 273.901 472.136 274.315 472.136 274.315 C 469.638 274.405 467.139 274.496 464.174 274.586 Z"/>
    <path fill="#57361E" opacity="1.000000" stroke="none" style="stroke-width: 1;" d="M 472.257 274.348 C 472.136 274.315 472.219 273.901 472.334 273.934 C 472.449 273.967 472.379 274.381 472.257 274.348 Z"/>
    <path fill="#100A06" opacity="1.000000" stroke="none" style="stroke-width: 1;" d="M 437.254 238.514 C 436.723 235.85 436.659 233.21 436.537 230.141 C 442.293 229.714 448.105 229.714 454.359 229.62 C 454.8 229.524 454.73 229.53 454.618 229.964 C 454.461 233.072 454.416 235.745 454.371 238.419 C 448.821 238.458 443.271 238.498 437.254 238.514 Z"/>
    <path fill="#1F0A05" opacity="1.000000" stroke="none" style="stroke-width: 1;" d="M 454.859 228.765 C 460.43 228.535 465.939 228.572 471.15 229.025 C 465.478 229.471 460.104 229.5 454.73 229.53 C 454.73 229.53 454.8 229.524 454.821 229.552 C 454.828 229.398 454.813 229.215 454.859 228.765 Z"/>
    <path fill="#211B13" opacity="1.000000" stroke="none" style="stroke-width: 1;" d="M 355.877 317.766 C 357.808 312.178 365.637 310.487 372.373 314.277 C 372.713 315.608 372.771 316.681 372.56 318.276 C 372.075 318.989 371.891 319.208 371.739 319.455 C 367.715 319.518 363.691 319.582 358.985 319.344 C 357.507 318.87 356.71 318.698 355.913 318.526 C 355.888 318.357 355.864 318.188 355.877 317.766 M 367.829 317.533 C 368.718 316.795 369.607 316.058 370.496 315.321 C 369.623 314.735 368.784 313.717 367.871 313.645 C 365.226 313.438 362.539 313.483 359.894 313.723 C 359.221 313.783 358.154 314.943 358.166 315.581 C 358.178 316.222 359.258 317.308 359.96 317.386 C 362.266 317.642 364.612 317.528 367.829 317.533 Z"/>
    <path fill="#020303" opacity="1.000000" stroke="none" style="stroke-width: 1;" d="M 355.867 318.76 C 356.71 318.698 357.507 318.87 358.529 319.255 C 358.024 319.504 357.293 319.541 356.2 319.524 C 355.837 319.47 355.821 318.994 355.867 318.76 Z"/>
    <path fill="#020303" opacity="1.000000" stroke="none" style="stroke-width: 1;" d="M 372.009 319.465 C 371.891 319.208 372.075 318.989 372.467 318.67 C 372.521 318.854 372.4 319.164 372.009 319.465 Z"/>
    <path fill="#D38727" opacity="1.000000" stroke="none" style="stroke-width: 1;" d="M 454.618 229.964 C 460.104 229.5 465.478 229.471 471.316 229.369 C 472.059 229.554 472.338 229.81 472.665 230.758 C 472.641 233.83 472.568 236.209 472.063 238.584 C 469.015 238.581 466.4 238.582 463.785 238.584 C 460.967 238.547 458.149 238.51 454.851 238.446 C 454.416 235.745 454.461 233.072 454.618 229.964 Z"/>
    <path fill="#57361E" opacity="1.000000" stroke="none" style="stroke-width: 1;" d="M 427.474 262.971 C 427.419 262.107 427.465 261.664 427.527 260.503 C 427.709 258.751 427.875 257.716 428.04 256.681 C 431.53 256.704 435.02 256.741 438.509 256.745 C 446.226 256.753 446.441 257.026 444.849 265.694 C 443.18 265.694 441.401 265.694 439.175 265.732 C 436.168 265.722 433.574 265.903 431.063 265.529 C 429.821 265.344 428.732 264.136 427.474 262.971 Z"/>
    <path fill="#B76916" opacity="1.000000" stroke="none" style="stroke-width: 1;" d="M 463.767 239.033 C 466.4 238.582 469.015 238.581 472.139 239.021 C 472.587 242.114 472.525 244.765 472.464 247.416 C 472.3 247.427 472.137 247.442 471.973 247.448 C 463.657 247.719 463.657 247.719 463.767 239.033 Z"/>
    <path fill="#3A1E13" opacity="1.000000" stroke="none" style="stroke-width: 1;" d="M 472.385 256.662 C 472.729 257.011 472.744 257.468 472.259 258.245 C 467.786 258.562 463.78 258.268 459.856 258.706 C 458.412 258.867 457.161 260.756 455.822 261.856 C 457.079 262.77 458.24 263.887 459.62 264.538 C 460.904 265.144 462.423 265.254 463.838 265.582 C 463.838 265.582 463.782 265.617 463.761 265.591 C 461.069 265.54 458.398 265.515 455.284 265.451 C 454.83 263.079 454.818 260.746 455.054 257.955 C 455.488 257.432 455.625 257.311 455.713 257.135 C 460.105 257.074 464.496 257.014 469.444 257.12 C 470 257.286 470.392 257.321 470.392 257.321 C 470.392 257.321 470.715 257.096 470.715 257.096 C 471.162 256.987 471.61 256.878 472.385 256.662 Z"/>
    <path fill="#1F0A05" opacity="1.000000" stroke="none" style="stroke-width: 1;" d="M 472.564 247.874 C 472.525 244.765 472.587 242.114 472.572 239.025 C 472.568 236.209 472.641 233.83 472.792 231.016 C 473.377 230.966 474.334 231.364 474.323 231.735 C 474.098 239.936 473.766 248.134 473.123 256.428 C 472.748 253.793 472.706 251.062 472.564 247.874 Z"/>
    <path fill="#D38727" opacity="1.000000" stroke="none" style="stroke-width: 1;" d="M 427.66 256.652 C 427.875 257.716 427.709 258.751 427.47 260.172 C 426.852 259.49 426.308 258.421 425.761 257.019 C 426.265 256.665 426.772 256.644 427.66 256.652 Z"/>
    <path fill="#57361E" opacity="1.000000" stroke="none" style="stroke-width: 1;" d="M 455.543 257.05 C 455.625 257.311 455.488 257.432 455.166 257.53 C 454.958 257.257 455.073 257.057 455.543 257.05 Z"/>
    <path fill="#57361E" opacity="1.000000" stroke="none" style="stroke-width: 1;" d="M 470.49 257.01 C 470.715 257.096 470.392 257.321 470.392 257.321 C 470.392 257.321 470 257.286 469.907 257.189 C 469.814 257.092 470.265 256.923 470.49 257.01 Z"/>
    <path fill="#57361E" opacity="1.000000" stroke="none" style="stroke-width: 1;" d="M 464.281 265.593 C 462.423 265.254 460.904 265.144 459.62 264.538 C 458.24 263.887 457.079 262.77 455.822 261.856 C 457.161 260.756 458.412 258.867 459.856 258.706 C 463.78 258.268 467.786 258.562 472.217 258.587 C 472.691 260.624 472.707 262.639 472.722 265.088 C 470.055 265.549 467.39 265.576 464.281 265.593 Z"/>
    <path fill="#020303" opacity="1.000000" stroke="none" style="stroke-width: 1;" d="M 367.386 317.544 C 364.612 317.528 362.266 317.642 359.96 317.386 C 359.258 317.308 358.178 316.222 358.166 315.581 C 358.154 314.943 359.221 313.783 359.894 313.723 C 362.539 313.483 365.226 313.438 367.871 313.645 C 368.784 313.717 369.623 314.735 370.496 315.321 C 369.607 316.058 368.718 316.795 367.386 317.544 Z"/>
  </g>
</svg>