<svg xmlns="http://www.w3.org/2000/svg" viewBox="196.48 149.28 100.28 148.34">
  <g id="Layer_1" transform="matrix(0.795852, 0, 0, 0.867499, 96.317459, 161.119019)" style="">
    <g transform="matrix(1, 0, 0, 1, -136.145798, -238.646042)">
      <rect x="298" y="252" style="fill:#3F1900;" width="9" height="9"/>
      <rect x="307" y="252" style="fill:#3F1900;" width="9" height="9"/>
      <rect x="316" y="252" style="fill:#3F1900;" width="9" height="9"/>
      <rect x="325" y="252" style="fill:#3F1900;" width="9" height="9"/>
      <rect x="334" y="252" style="fill:#3F1900;" width="9" height="9"/>
      <rect x="334" y="243" style="fill:#3F1900;" width="9" height="9"/>
      <rect x="334" y="234" style="fill:#3F1900;" width="9" height="9"/>
      <rect x="334" y="225" style="fill:#3F1900;" width="9" height="9"/>
      <rect x="325" y="225" style="fill:#3F1900;" width="9" height="9"/>
      <rect x="316" y="225" style="fill:#3F1900;" width="9" height="9"/>
      <rect x="307" y="225" style="fill:#3F1900;" width="9" height="9"/>
      <rect x="298" y="225" style="fill:#3F1900;" width="9" height="9"/>
      <rect x="298" y="234" style="fill:#3F1900;" width="9" height="9"/>
      <rect x="298" y="243" style="fill:#3F1900;" width="9" height="9"/>
      <rect x="307" y="243" style="fill:#3F1900;" width="9" height="9"/>
      <rect x="316" y="243" style="fill:#3F1900;" width="9" height="9"/>
      <rect x="325" y="243" style="fill:#3F1900;" width="9" height="9"/>
      <rect x="325" y="234" style="fill:#3F1900;" width="9" height="9"/>
      <rect x="316" y="234" style="fill:#3F1900;" width="9" height="9"/>
      <rect x="307" y="234" style="fill:#3F1900;" width="9" height="9"/>
      <rect x="343" y="252" style="fill:#3F1900;" width="9" height="9"/>
      <rect x="343" y="243" style="fill:#3F1900;" width="9" height="9"/>
      <rect x="343" y="234" style="fill:#3F1900;" width="9" height="9"/>
      <rect x="343" y="225" style="fill:#3F1900;" width="9" height="9"/>
      <rect x="298" y="261" style="fill:#3F1900;" width="9" height="9"/>
      <rect x="343" y="261" style="fill:#3F1900;" width="9" height="9"/>
      <rect x="307" y="261" style="fill:#FFC3BF;" width="9" height="9"/>
      <rect x="316" y="261" style="fill:#FFC3BF;" width="9" height="9"/>
      <rect x="325" y="261" style="fill:#FFC3BF;" width="9" height="9"/>
      <rect x="334" y="261" style="fill:#FFC3BF;" width="9" height="9"/>
      <rect x="334" y="270" style="fill:#FFC3BF;" width="9" height="9"/>
      <rect x="325" y="270" style="fill:#FFC3BF;" width="9" height="9"/>
      <rect x="316" y="270" style="fill:#FFC3BF;" width="9" height="9"/>
      <rect x="298" y="270" style="fill:#FF9B94;" width="9" height="9"/>
      <rect x="298" y="279" style="fill:#FFC3BF;" width="9" height="9"/>
      <rect x="307" y="279" style="fill:#FFC3BF;" width="9" height="9"/>
      <rect x="316" y="279" style="fill:#FFC3BF;" width="9" height="9"/>
      <rect x="325" y="279" style="fill:#FFC3BF;" width="9" height="9"/>
      <rect x="334" y="279" style="fill:#FFC3BF;" width="9" height="9"/>
      <rect x="343" y="279" style="fill:#FFC3BF;" width="9" height="9"/>
      <rect x="343" y="270" style="fill:#FF9B94;" width="9" height="9"/>
      <rect x="307" y="270" style="fill:#FFC3BF;" width="9" height="9"/>
      <rect x="298" y="261" style="fill:#FFC3BF;" width="9" height="9"/>
      <rect x="343" y="261" style="fill:#FFC3BF;" width="9" height="9"/>
      <rect x="307" y="261" width="9" height="9"/>
      <rect x="334" y="261" width="9" height="9"/>
      <rect x="298" y="288" style="fill:#5FA6FF;" width="9" height="9"/>
      <rect x="307" y="288" style="fill:#5FA6FF;" width="9" height="9"/>
      <rect x="316" y="288" style="fill:#5FA6FF;" width="9" height="9"/>
      <rect x="325" y="288" style="fill:#5FA6FF;" width="9" height="9"/>
      <rect x="334" y="288" style="fill:#5FA6FF;" width="9" height="9"/>
      <rect x="343" y="288" style="fill:#5FA6FF;" width="9" height="9"/>
      <rect x="343" y="297" style="fill:#5FA6FF;" width="9" height="9"/>
      <rect x="343" y="306" style="fill:#5FA6FF;" width="9" height="9"/>
      <rect x="343" y="315" style="fill:#5FA6FF;" width="9" height="9"/>
      <rect x="334" y="315" style="fill:#5FA6FF;" width="9" height="9"/>
      <rect x="325" y="315" style="fill:#5FA6FF;" width="9" height="9"/>
      <rect x="316" y="315" style="fill:#5FA6FF;" width="9" height="9"/>
      <rect x="307" y="315" style="fill:#5FA6FF;" width="9" height="9"/>
      <rect x="298" y="315" style="fill:#5FA6FF;" width="9" height="9"/>
      <rect x="298" y="306" style="fill:#5FA6FF;" width="9" height="9"/>
      <rect x="298" y="297" style="fill:#5FA6FF;" width="9" height="9"/>
      <rect x="307" y="297" style="fill:#5FA6FF;" width="9" height="9"/>
      <rect x="316" y="297" style="fill:#5FA6FF;" width="9" height="9"/>
      <rect x="325" y="297" style="fill:#5FA6FF;" width="9" height="9"/>
      <rect x="334" y="297" style="fill:#5FA6FF;" width="9" height="9"/>
      <rect x="334" y="306" style="fill:#5FA6FF;" width="9" height="9"/>
      <rect x="325" y="306" style="fill:#5FA6FF;" width="9" height="9"/>
      <rect x="316" y="306" style="fill:#5FA6FF;" width="9" height="9"/>
      <rect x="307" y="306" style="fill:#5FA6FF;" width="9" height="9"/>
      <rect x="298" y="324" style="fill:#5FA6FF;" width="9" height="9"/>
      <rect x="307" y="324" style="fill:#5FA6FF;" width="9" height="9"/>
      <rect x="316" y="324" style="fill:#5FA6FF;" width="9" height="9"/>
      <rect x="325" y="324" style="fill:#5FA6FF;" width="9" height="9"/>
      <rect x="334" y="324" style="fill:#5FA6FF;" width="9" height="9"/>
      <rect x="343" y="324" style="fill:#5FA6FF;" width="9" height="9"/>
      <rect x="316" y="288" style="fill:#3F1900;" width="9" height="9"/>
      <rect x="325" y="288" style="fill:#3F1900;" width="9" height="9"/>
      <rect x="316" y="297" style="fill:#6B2A00;" width="9" height="9"/>
      <rect x="316" y="306" style="fill:#6B2A00;" width="9" height="9"/>
      <rect x="316" y="315" style="fill:#6B2A00;" width="9" height="9"/>
      <rect x="325" y="315" style="fill:#6B2A00;" width="9" height="9"/>
      <rect x="325" y="306" style="fill:#6B2A00;" width="9" height="9"/>
      <rect x="325" y="297" style="fill:#6B2A00;" width="9" height="9"/>
      <rect x="325" y="288" style="fill:#2B0F00;" width="9" height="9"/>
      <rect x="316" y="288" style="fill:#2B0F00;" width="9" height="9"/>
      <rect x="298" y="333" width="9" height="9"/>
      <rect x="307" y="333" width="9" height="9"/>
      <rect x="316" y="333" width="9" height="9"/>
      <rect x="325" y="333" width="9" height="9"/>
      <rect x="334" y="333" width="9" height="9"/>
      <rect x="343" y="333" width="9" height="9"/>
      <rect x="343" y="342" width="9" height="9"/>
      <rect x="334" y="342" width="9" height="9"/>
      <rect x="325" y="342" width="9" height="9"/>
      <rect x="316" y="342" width="9" height="9"/>
      <rect x="307" y="342" width="9" height="9"/>
      <rect x="298" y="342" width="9" height="9"/>
      <rect x="298" y="351" width="9" height="9"/>
      <rect x="298" y="360" width="9" height="9"/>
      <rect x="298" y="369" width="9" height="9"/>
      <rect x="298" y="378" width="9" height="9"/>
      <rect x="307" y="378" width="9" height="9"/>
      <rect x="307" y="369" width="9" height="9"/>
      <rect x="307" y="360" width="9" height="9"/>
      <rect x="307" y="351" width="9" height="9"/>
      <rect x="334" y="351" width="9" height="9"/>
      <rect x="334" y="360" width="9" height="9"/>
      <rect x="334" y="369" width="9" height="9"/>
      <rect x="334" y="378" width="9" height="9"/>
      <rect x="343" y="378" width="9" height="9"/>
      <rect x="343" y="369" width="9" height="9"/>
      <rect x="343" y="360" width="9" height="9"/>
      <rect x="343" y="351" width="9" height="9"/>
      <rect x="307" y="387" width="9" height="9"/>
      <rect x="298" y="387" width="9" height="9"/>
      <rect x="316" y="387" width="9" height="9"/>
      <rect x="334" y="387" width="9" height="9"/>
      <rect x="343" y="387" width="9" height="9"/>
      <rect x="352" y="387" width="9" height="9"/>
      <rect x="289" y="297" style="fill:#3B92FF;" width="9" height="9"/>
      <rect x="289" y="288" style="fill:#3B92FF;" width="9" height="9"/>
      <rect x="280" y="288" style="fill:#3B92FF;" width="9" height="9"/>
      <rect x="280" y="279" style="fill:#3B92FF;" width="9" height="9"/>
      <rect x="271" y="279" style="fill:#3B92FF;" width="9" height="9"/>
      <rect x="271" y="288" style="fill:#3B92FF;" width="9" height="9"/>
      <rect x="370" y="288" style="fill:#3B92FF;" width="9" height="9"/>
      <rect x="280" y="297" style="fill:#3B92FF;" width="9" height="9"/>
      <rect x="361" y="297" style="fill:#3B92FF;" width="9" height="9"/>
      <rect x="271" y="270" style="fill:#3B92FF;" width="9" height="9"/>
      <rect x="262" y="270" style="fill:#3B92FF;" width="9" height="9"/>
      <rect x="262" y="261" style="fill:#3B92FF;" width="9" height="9"/>
      <rect x="271" y="261" style="fill:#3B92FF;" width="9" height="9"/>
      <rect x="370" y="261" style="fill:#3B92FF;" width="9" height="9"/>
      <rect x="379" y="261" style="fill:#3B92FF;" width="9" height="9"/>
      <rect x="379" y="270" style="fill:#3B92FF;" width="9" height="9"/>
      <rect x="370" y="270" style="fill:#3B92FF;" width="9" height="9"/>
      <rect x="370" y="279" style="fill:#3B92FF;" width="9" height="9"/>
      <rect x="361" y="279" style="fill:#3B92FF;" width="9" height="9"/>
      <rect x="361" y="288" style="fill:#3B92FF;" width="9" height="9"/>
      <rect x="352" y="288" style="fill:#3B92FF;" width="9" height="9"/>
      <rect x="379" y="252" style="fill:#FFC3BF;" width="9" height="9"/>
      <rect x="370" y="252" style="fill:#FFC3BF;" width="9" height="9"/>
      <rect x="262" y="252" style="fill:#FFC3BF;" width="9" height="9"/>
      <rect x="262" y="243" style="fill:#FFC3BF;" width="9" height="9"/>
      <rect x="271" y="243" style="fill:#FFC3BF;" width="9" height="9"/>
      <rect x="370" y="243" style="fill:#FFC3BF;" width="9" height="9"/>
      <rect x="379" y="243" style="fill:#FFC3BF;" width="9" height="9"/>
      <rect x="271" y="252" style="fill:#FFC3BF;" width="9" height="9"/>
      <rect x="352" y="297" style="fill:#3B92FF;" width="9" height="9"/>
      <rect x="298" y="333" style="fill:#5FA6FF;" width="9" height="9"/>
      <rect x="307" y="333" style="fill:#5FA6FF;" width="9" height="9"/>
      <rect x="316" y="333" style="fill:#5FA6FF;" width="9" height="9"/>
      <rect x="325" y="333" style="fill:#5FA6FF;" width="9" height="9"/>
      <rect x="334" y="333" style="fill:#5FA6FF;" width="9" height="9"/>
      <rect x="343" y="333" style="fill:#5FA6FF;" width="9" height="9"/>
    </g>
  </g>
</svg>