<svg xmlns="http://www.w3.org/2000/svg" viewBox="281.86 161.58 93.11 148.34">
  <g id="Layer_1" transform="matrix(0.795852, 0, 0, 0.867499, 96.317459, 161.119019)" style="">
    <g transform="matrix(1, 0, 0, 1, -298.868134, -224.467224)">
      <rect x="541" y="252" style="fill:#3F1900;" width="9" height="9"/>
      <rect x="550" y="252" style="fill:#3F1900;" width="9" height="9"/>
      <rect x="559" y="252" style="fill:#3F1900;" width="9" height="9"/>
      <rect x="568" y="252" style="fill:#3F1900;" width="9" height="9"/>
      <rect x="577" y="252" style="fill:#3F1900;" width="9" height="9"/>
      <rect x="577" y="243" style="fill:#3F1900;" width="9" height="9"/>
      <rect x="577" y="234" style="fill:#3F1900;" width="9" height="9"/>
      <rect x="577" y="225" style="fill:#3F1900;" width="9" height="9"/>
      <rect x="568" y="225" style="fill:#3F1900;" width="9" height="9"/>
      <rect x="559" y="225" style="fill:#3F1900;" width="9" height="9"/>
      <rect x="550" y="225" style="fill:#3F1900;" width="9" height="9"/>
      <rect x="541" y="225" style="fill:#3F1900;" width="9" height="9"/>
      <rect x="541" y="234" style="fill:#3F1900;" width="9" height="9"/>
      <rect x="541" y="243" style="fill:#3F1900;" width="9" height="9"/>
      <rect x="550" y="243" style="fill:#3F1900;" width="9" height="9"/>
      <rect x="559" y="243" style="fill:#3F1900;" width="9" height="9"/>
      <rect x="568" y="243" style="fill:#3F1900;" width="9" height="9"/>
      <rect x="568" y="234" style="fill:#3F1900;" width="9" height="9"/>
      <rect x="559" y="234" style="fill:#3F1900;" width="9" height="9"/>
      <rect x="550" y="234" style="fill:#3F1900;" width="9" height="9"/>
      <rect x="586" y="252" style="fill:#3F1900;" width="9" height="9"/>
      <rect x="586" y="243" style="fill:#3F1900;" width="9" height="9"/>
      <rect x="586" y="234" style="fill:#3F1900;" width="9" height="9"/>
      <rect x="586" y="225" style="fill:#3F1900;" width="9" height="9"/>
      <rect x="541" y="261" style="fill:#3F1900;" width="9" height="9"/>
      <rect x="586" y="261" style="fill:#3F1900;" width="9" height="9"/>
      <rect x="550" y="261" style="fill:#FFC3BF;" width="9" height="9"/>
      <rect x="559" y="261" style="fill:#FFC3BF;" width="9" height="9"/>
      <rect x="568" y="261" style="fill:#FFC3BF;" width="9" height="9"/>
      <rect x="577" y="261" style="fill:#FFC3BF;" width="9" height="9"/>
      <rect x="577" y="270" style="fill:#FFC3BF;" width="9" height="9"/>
      <rect x="568" y="270" style="fill:#FFC3BF;" width="9" height="9"/>
      <rect x="559" y="270" style="fill:#FFC3BF;" width="9" height="9"/>
      <rect x="541" y="270" style="fill:#FF9B94;" width="9" height="9"/>
      <rect x="541" y="279" style="fill:#FFC3BF;" width="9" height="9"/>
      <rect x="550" y="279" style="fill:#FFC3BF;" width="9" height="9"/>
      <rect x="559" y="279" style="fill:#FFC3BF;" width="9" height="9"/>
      <rect x="568" y="279" style="fill:#FFC3BF;" width="9" height="9"/>
      <rect x="577" y="279" style="fill:#FFC3BF;" width="9" height="9"/>
      <rect x="586" y="279" style="fill:#FFC3BF;" width="9" height="9"/>
      <rect x="586" y="270" style="fill:#FF9B94;" width="9" height="9"/>
      <rect x="550" y="270" style="fill:#FFC3BF;" width="9" height="9"/>
      <rect x="541" y="261" style="fill:#FFC3BF;" width="9" height="9"/>
      <rect x="586" y="261" style="fill:#FFC3BF;" width="9" height="9"/>
      <rect x="550" y="261" width="9" height="9"/>
      <rect x="577" y="261" width="9" height="9"/>
      <rect x="541" y="288" style="fill:#5FA6FF;" width="9" height="9"/>
      <rect x="550" y="288" style="fill:#5FA6FF;" width="9" height="9"/>
      <rect x="559" y="288" style="fill:#5FA6FF;" width="9" height="9"/>
      <rect x="568" y="288" style="fill:#5FA6FF;" width="9" height="9"/>
      <rect x="577" y="288" style="fill:#5FA6FF;" width="9" height="9"/>
      <rect x="586" y="288" style="fill:#5FA6FF;" width="9" height="9"/>
      <rect x="586" y="297" style="fill:#5FA6FF;" width="9" height="9"/>
      <rect x="586" y="306" style="fill:#5FA6FF;" width="9" height="9"/>
      <rect x="586" y="315" style="fill:#5FA6FF;" width="9" height="9"/>
      <rect x="577" y="315" style="fill:#5FA6FF;" width="9" height="9"/>
      <rect x="568" y="315" style="fill:#5FA6FF;" width="9" height="9"/>
      <rect x="559" y="315" style="fill:#5FA6FF;" width="9" height="9"/>
      <rect x="550" y="315" style="fill:#5FA6FF;" width="9" height="9"/>
      <rect x="541" y="315" style="fill:#5FA6FF;" width="9" height="9"/>
      <rect x="541" y="306" style="fill:#5FA6FF;" width="9" height="9"/>
      <rect x="541" y="297" style="fill:#5FA6FF;" width="9" height="9"/>
      <rect x="550" y="297" style="fill:#5FA6FF;" width="9" height="9"/>
      <rect x="559" y="297" style="fill:#5FA6FF;" width="9" height="9"/>
      <rect x="568" y="297" style="fill:#5FA6FF;" width="9" height="9"/>
      <rect x="577" y="297" style="fill:#5FA6FF;" width="9" height="9"/>
      <rect x="577" y="306" style="fill:#5FA6FF;" width="9" height="9"/>
      <rect x="568" y="306" style="fill:#5FA6FF;" width="9" height="9"/>
      <rect x="559" y="306" style="fill:#5FA6FF;" width="9" height="9"/>
      <rect x="550" y="306" style="fill:#5FA6FF;" width="9" height="9"/>
      <rect x="541" y="324" style="fill:#5FA6FF;" width="9" height="9"/>
      <rect x="550" y="324" style="fill:#5FA6FF;" width="9" height="9"/>
      <rect x="559" y="324" style="fill:#5FA6FF;" width="9" height="9"/>
      <rect x="568" y="324" style="fill:#5FA6FF;" width="9" height="9"/>
      <rect x="577" y="324" style="fill:#5FA6FF;" width="9" height="9"/>
      <rect x="586" y="324" style="fill:#5FA6FF;" width="9" height="9"/>
      <rect x="559" y="288" style="fill:#3F1900;" width="9" height="9"/>
      <rect x="568" y="288" style="fill:#3F1900;" width="9" height="9"/>
      <rect x="559" y="297" style="fill:#6B2A00;" width="9" height="9"/>
      <rect x="559" y="306" style="fill:#6B2A00;" width="9" height="9"/>
      <rect x="559" y="315" style="fill:#6B2A00;" width="9" height="9"/>
      <rect x="568" y="315" style="fill:#6B2A00;" width="9" height="9"/>
      <rect x="568" y="306" style="fill:#6B2A00;" width="9" height="9"/>
      <rect x="568" y="297" style="fill:#6B2A00;" width="9" height="9"/>
      <rect x="568" y="288" style="fill:#2B0F00;" width="9" height="9"/>
      <rect x="559" y="288" style="fill:#2B0F00;" width="9" height="9"/>
      <rect x="541" y="333" width="9" height="9"/>
      <rect x="550" y="333" width="9" height="9"/>
      <rect x="559" y="333" width="9" height="9"/>
      <rect x="568" y="333" width="9" height="9"/>
      <rect x="577" y="333" width="9" height="9"/>
      <rect x="586" y="333" width="9" height="9"/>
      <rect x="586" y="342" width="9" height="9"/>
      <rect x="577" y="342" width="9" height="9"/>
      <rect x="568" y="342" width="9" height="9"/>
      <rect x="559" y="342" width="9" height="9"/>
      <rect x="550" y="342" width="9" height="9"/>
      <rect x="541" y="342" width="9" height="9"/>
      <rect x="541" y="351" width="9" height="9"/>
      <rect x="541" y="360" width="9" height="9"/>
      <rect x="541" y="369" width="9" height="9"/>
      <rect x="541" y="378" width="9" height="9"/>
      <rect x="550" y="378" width="9" height="9"/>
      <rect x="550" y="369" width="9" height="9"/>
      <rect x="550" y="360" width="9" height="9"/>
      <rect x="550" y="351" width="9" height="9"/>
      <rect x="577" y="351" width="9" height="9"/>
      <rect x="577" y="360" width="9" height="9"/>
      <rect x="577" y="369" width="9" height="9"/>
      <rect x="577" y="378" width="9" height="9"/>
      <rect x="586" y="378" width="9" height="9"/>
      <rect x="586" y="369" width="9" height="9"/>
      <rect x="586" y="360" width="9" height="9"/>
      <rect x="586" y="351" width="9" height="9"/>
      <rect x="550" y="387" width="9" height="9"/>
      <rect x="541" y="387" width="9" height="9"/>
      <rect x="559" y="387" width="9" height="9"/>
      <rect x="577" y="387" width="9" height="9"/>
      <rect x="586" y="387" width="9" height="9"/>
      <rect x="595" y="387" width="9" height="9"/>
      <rect x="532" y="297" style="fill:#3B92FF;" width="9" height="9"/>
      <rect x="532" y="306" style="fill:#3B92FF;" width="9" height="9"/>
      <rect x="532" y="315" style="fill:#3B92FF;" width="9" height="9"/>
      <rect x="532" y="324" style="fill:#3B92FF;" width="9" height="9"/>
      <rect x="532" y="333" style="fill:#3B92FF;" width="9" height="9"/>
      <rect x="532" y="342" style="fill:#FFC3BF;" width="9" height="9"/>
      <rect x="613" y="288" style="fill:#3B92FF;" width="9" height="9"/>
      <rect x="613" y="297" style="fill:#3B92FF;" width="9" height="9"/>
      <rect x="622" y="297" style="fill:#3B92FF;" width="9" height="9"/>
      <rect x="631" y="288" style="fill:#FFC3BF;" width="9" height="9"/>
      <rect x="631" y="297" style="fill:#FFC3BF;" width="9" height="9"/>
      <rect x="640" y="288" style="fill:#FFC3BF;" width="9" height="9"/>
      <rect x="622" y="288" style="fill:#3B92FF;" width="9" height="9"/>
      <rect x="604" y="297" style="fill:#3B92FF;" width="9" height="9"/>
      <rect x="604" y="288" style="fill:#3B92FF;" width="9" height="9"/>
      <rect x="595" y="288" style="fill:#3B92FF;" width="9" height="9"/>
      <rect x="595" y="297" style="fill:#3B92FF;" width="9" height="9"/>
      <rect x="541" y="333" style="fill:#5FA6FF;" width="9" height="9"/>
      <rect x="550" y="333" style="fill:#5FA6FF;" width="9" height="9"/>
      <rect x="559" y="333" style="fill:#5FA6FF;" width="9" height="9"/>
      <rect x="568" y="333" style="fill:#5FA6FF;" width="9" height="9"/>
      <rect x="577" y="333" style="fill:#5FA6FF;" width="9" height="9"/>
      <rect x="586" y="333" style="fill:#5FA6FF;" width="9" height="9"/>
    </g>
  </g>
</svg>