<svg xmlns="http://www.w3.org/2000/svg" viewBox="87.59 128.37 57.3 148.34">
  <g id="Layer_1" transform="matrix(0.795852, 0, 0, 0.867499, 96.317459, 161.119019)" style="">
    <g transform="matrix(1, 0, 0, 1, -174.971848, -262.750061)">
      <rect x="173" y="252" style="fill:#3F1900;" width="9" height="9"/>
      <rect x="182" y="252" style="fill:#3F1900;" width="9" height="9"/>
      <rect x="191" y="252" style="fill:#3F1900;" width="9" height="9"/>
      <rect x="200" y="252" style="fill:#3F1900;" width="9" height="9"/>
      <rect x="209" y="252" style="fill:#3F1900;" width="9" height="9"/>
      <rect x="209" y="243" style="fill:#3F1900;" width="9" height="9"/>
      <rect x="209" y="234" style="fill:#3F1900;" width="9" height="9"/>
      <rect x="209" y="225" style="fill:#3F1900;" width="9" height="9"/>
      <rect x="200" y="225" style="fill:#3F1900;" width="9" height="9"/>
      <rect x="191" y="225" style="fill:#3F1900;" width="9" height="9"/>
      <rect x="182" y="225" style="fill:#3F1900;" width="9" height="9"/>
      <rect x="173" y="225" style="fill:#3F1900;" width="9" height="9"/>
      <rect x="173" y="234" style="fill:#3F1900;" width="9" height="9"/>
      <rect x="173" y="243" style="fill:#3F1900;" width="9" height="9"/>
      <rect x="182" y="243" style="fill:#3F1900;" width="9" height="9"/>
      <rect x="191" y="243" style="fill:#3F1900;" width="9" height="9"/>
      <rect x="200" y="243" style="fill:#3F1900;" width="9" height="9"/>
      <rect x="200" y="234" style="fill:#3F1900;" width="9" height="9"/>
      <rect x="191" y="234" style="fill:#3F1900;" width="9" height="9"/>
      <rect x="182" y="234" style="fill:#3F1900;" width="9" height="9"/>
      <rect x="218" y="252" style="fill:#3F1900;" width="9" height="9"/>
      <rect x="218" y="243" style="fill:#3F1900;" width="9" height="9"/>
      <rect x="218" y="234" style="fill:#3F1900;" width="9" height="9"/>
      <rect x="218" y="225" style="fill:#3F1900;" width="9" height="9"/>
      <rect x="173" y="261" style="fill:#3F1900;" width="9" height="9"/>
      <rect x="218" y="261" style="fill:#3F1900;" width="9" height="9"/>
      <rect x="182" y="261" style="fill:#FFC3BF;" width="9" height="9"/>
      <rect x="191" y="261" style="fill:#FFC3BF;" width="9" height="9"/>
      <rect x="200" y="261" style="fill:#FFC3BF;" width="9" height="9"/>
      <rect x="209" y="261" style="fill:#FFC3BF;" width="9" height="9"/>
      <rect x="209" y="270" style="fill:#FFC3BF;" width="9" height="9"/>
      <rect x="200" y="270" style="fill:#FFC3BF;" width="9" height="9"/>
      <rect x="191" y="270" style="fill:#FFC3BF;" width="9" height="9"/>
      <rect x="173" y="270" style="fill:#FF9B94;" width="9" height="9"/>
      <rect x="173" y="279" style="fill:#FFC3BF;" width="9" height="9"/>
      <rect x="182" y="279" style="fill:#FFC3BF;" width="9" height="9"/>
      <rect x="191" y="279" style="fill:#FFC3BF;" width="9" height="9"/>
      <rect x="200" y="279" style="fill:#FFC3BF;" width="9" height="9"/>
      <rect x="209" y="279" style="fill:#FFC3BF;" width="9" height="9"/>
      <rect x="218" y="279" style="fill:#FFC3BF;" width="9" height="9"/>
      <rect x="218" y="270" style="fill:#FF9B94;" width="9" height="9"/>
      <rect x="182" y="270" style="fill:#FFC3BF;" width="9" height="9"/>
      <rect x="173" y="261" style="fill:#FFC3BF;" width="9" height="9"/>
      <rect x="218" y="261" style="fill:#FFC3BF;" width="9" height="9"/>
      <rect x="182" y="261" width="9" height="9"/>
      <rect x="209" y="261" width="9" height="9"/>
      <rect x="173" y="288" style="fill:#5FA6FF;" width="9" height="9"/>
      <rect x="182" y="288" style="fill:#5FA6FF;" width="9" height="9"/>
      <rect x="191" y="288" style="fill:#5FA6FF;" width="9" height="9"/>
      <rect x="200" y="288" style="fill:#5FA6FF;" width="9" height="9"/>
      <rect x="209" y="288" style="fill:#5FA6FF;" width="9" height="9"/>
      <rect x="218" y="288" style="fill:#5FA6FF;" width="9" height="9"/>
      <rect x="218" y="297" style="fill:#5FA6FF;" width="9" height="9"/>
      <rect x="218" y="306" style="fill:#5FA6FF;" width="9" height="9"/>
      <rect x="218" y="315" style="fill:#5FA6FF;" width="9" height="9"/>
      <rect x="209" y="315" style="fill:#5FA6FF;" width="9" height="9"/>
      <rect x="200" y="315" style="fill:#5FA6FF;" width="9" height="9"/>
      <rect x="191" y="315" style="fill:#5FA6FF;" width="9" height="9"/>
      <rect x="182" y="315" style="fill:#5FA6FF;" width="9" height="9"/>
      <rect x="173" y="315" style="fill:#5FA6FF;" width="9" height="9"/>
      <rect x="173" y="306" style="fill:#5FA6FF;" width="9" height="9"/>
      <rect x="173" y="297" style="fill:#5FA6FF;" width="9" height="9"/>
      <rect x="182" y="297" style="fill:#5FA6FF;" width="9" height="9"/>
      <rect x="191" y="297" style="fill:#5FA6FF;" width="9" height="9"/>
      <rect x="200" y="297" style="fill:#5FA6FF;" width="9" height="9"/>
      <rect x="209" y="297" style="fill:#5FA6FF;" width="9" height="9"/>
      <rect x="209" y="306" style="fill:#5FA6FF;" width="9" height="9"/>
      <rect x="200" y="306" style="fill:#5FA6FF;" width="9" height="9"/>
      <rect x="191" y="306" style="fill:#5FA6FF;" width="9" height="9"/>
      <rect x="182" y="306" style="fill:#5FA6FF;" width="9" height="9"/>
      <rect x="173" y="324" style="fill:#5FA6FF;" width="9" height="9"/>
      <rect x="182" y="324" style="fill:#5FA6FF;" width="9" height="9"/>
      <rect x="191" y="324" style="fill:#5FA6FF;" width="9" height="9"/>
      <rect x="200" y="324" style="fill:#5FA6FF;" width="9" height="9"/>
      <rect x="209" y="324" style="fill:#5FA6FF;" width="9" height="9"/>
      <rect x="218" y="324" style="fill:#5FA6FF;" width="9" height="9"/>
      <rect x="191" y="288" style="fill:#3F1900;" width="9" height="9"/>
      <rect x="200" y="288" style="fill:#3F1900;" width="9" height="9"/>
      <rect x="191" y="297" style="fill:#6B2A00;" width="9" height="9"/>
      <rect x="191" y="306" style="fill:#6B2A00;" width="9" height="9"/>
      <rect x="191" y="315" style="fill:#6B2A00;" width="9" height="9"/>
      <rect x="200" y="315" style="fill:#6B2A00;" width="9" height="9"/>
      <rect x="200" y="306" style="fill:#6B2A00;" width="9" height="9"/>
      <rect x="200" y="297" style="fill:#6B2A00;" width="9" height="9"/>
      <rect x="200" y="288" style="fill:#2B0F00;" width="9" height="9"/>
      <rect x="191" y="288" style="fill:#2B0F00;" width="9" height="9"/>
      <rect x="173" y="333" width="9" height="9"/>
      <rect x="182" y="333" width="9" height="9"/>
      <rect x="191" y="333" width="9" height="9"/>
      <rect x="200" y="333" width="9" height="9"/>
      <rect x="209" y="333" width="9" height="9"/>
      <rect x="218" y="333" width="9" height="9"/>
      <rect x="218" y="342" width="9" height="9"/>
      <rect x="209" y="342" width="9" height="9"/>
      <rect x="200" y="342" width="9" height="9"/>
      <rect x="191" y="342" width="9" height="9"/>
      <rect x="182" y="342" width="9" height="9"/>
      <rect x="173" y="342" width="9" height="9"/>
      <rect x="173" y="351" width="9" height="9"/>
      <rect x="173" y="360" width="9" height="9"/>
      <rect x="173" y="369" width="9" height="9"/>
      <rect x="173" y="378" width="9" height="9"/>
      <rect x="182" y="378" width="9" height="9"/>
      <rect x="182" y="369" width="9" height="9"/>
      <rect x="182" y="360" width="9" height="9"/>
      <rect x="182" y="351" width="9" height="9"/>
      <rect x="209" y="351" width="9" height="9"/>
      <rect x="209" y="360" width="9" height="9"/>
      <rect x="209" y="369" width="9" height="9"/>
      <rect x="209" y="378" width="9" height="9"/>
      <rect x="218" y="378" width="9" height="9"/>
      <rect x="218" y="369" width="9" height="9"/>
      <rect x="218" y="360" width="9" height="9"/>
      <rect x="218" y="351" width="9" height="9"/>
      <rect x="182" y="387" width="9" height="9"/>
      <rect x="173" y="387" width="9" height="9"/>
      <rect x="191" y="387" width="9" height="9"/>
      <rect x="209" y="387" width="9" height="9"/>
      <rect x="218" y="387" width="9" height="9"/>
      <rect x="227" y="387" width="9" height="9"/>
      <rect x="164" y="297" style="fill:#3B92FF;" width="9" height="9"/>
      <rect x="164" y="306" style="fill:#3B92FF;" width="9" height="9"/>
      <rect x="164" y="315" style="fill:#3B92FF;" width="9" height="9"/>
      <rect x="164" y="324" style="fill:#3B92FF;" width="9" height="9"/>
      <rect x="164" y="333" style="fill:#3B92FF;" width="9" height="9"/>
      <rect x="227" y="333" style="fill:#3B92FF;" width="9" height="9"/>
      <rect x="227" y="324" style="fill:#3B92FF;" width="9" height="9"/>
      <rect x="227" y="315" style="fill:#3B92FF;" width="9" height="9"/>
      <rect x="227" y="306" style="fill:#3B92FF;" width="9" height="9"/>
      <rect x="227" y="297" style="fill:#3B92FF;" width="9" height="9"/>
      <rect x="164" y="342" style="fill:#FFC3BF;" width="9" height="9"/>
      <rect x="227" y="342" style="fill:#FFC3BF;" width="9" height="9"/>
      <rect x="173" y="333" style="fill:#5FA6FF;" width="9" height="9"/>
      <rect x="182" y="333" style="fill:#5FA6FF;" width="9" height="9"/>
      <rect x="191" y="333" style="fill:#5FA6FF;" width="9" height="9"/>
      <rect x="200" y="333" style="fill:#5FA6FF;" width="9" height="9"/>
      <rect x="209" y="333" style="fill:#5FA6FF;" width="9" height="9"/>
      <rect x="218" y="333" style="fill:#5FA6FF;" width="9" height="9"/>
    </g>
  </g>
</svg>