<svg xmlns="http://www.w3.org/2000/svg" viewBox="191.52 188.23 57.3 148.35">
  <g id="Layer_1" transform="matrix(0.795852, 0, 0, 0.867499, 96.317459, 161.119019)" style="">
    <rect x="128.626" y="58.249" style="fill: rgb(63, 25, 0); stroke-width: 1;" width="9" height="9"/>
    <rect x="137.626" y="58.249" style="fill: rgb(63, 25, 0); stroke-width: 1;" width="9" height="9"/>
    <rect x="146.626" y="58.249" style="fill: rgb(63, 25, 0); stroke-width: 1;" width="9" height="9"/>
    <rect x="155.626" y="58.249" style="fill: rgb(63, 25, 0); stroke-width: 1;" width="9" height="9"/>
    <rect x="164.626" y="58.249" style="fill: rgb(63, 25, 0); stroke-width: 1;" width="9" height="9"/>
    <rect x="164.626" y="49.249" style="fill: rgb(63, 25, 0); stroke-width: 1;" width="9" height="9"/>
    <rect x="164.626" y="40.249" style="fill: rgb(63, 25, 0); stroke-width: 1;" width="9" height="9"/>
    <rect x="164.626" y="31.249" style="fill: rgb(63, 25, 0); stroke-width: 1;" width="9" height="9"/>
    <rect x="155.626" y="31.249" style="fill: rgb(63, 25, 0); stroke-width: 1;" width="9" height="9"/>
    <rect x="146.626" y="31.249" style="fill: rgb(63, 25, 0); stroke-width: 1;" width="9" height="9"/>
    <rect x="137.626" y="31.249" style="fill: rgb(63, 25, 0); stroke-width: 1;" width="9" height="9"/>
    <rect x="128.626" y="31.249" style="fill: rgb(63, 25, 0); stroke-width: 1;" width="9" height="9"/>
    <rect x="128.626" y="40.249" style="fill: rgb(63, 25, 0); stroke-width: 1;" width="9" height="9"/>
    <rect x="128.626" y="49.249" style="fill: rgb(63, 25, 0); stroke-width: 1;" width="9" height="9"/>
    <rect x="137.626" y="49.249" style="fill: rgb(63, 25, 0); stroke-width: 1;" width="9" height="9"/>
    <rect x="146.626" y="49.249" style="fill: rgb(63, 25, 0); stroke-width: 1;" width="9" height="9"/>
    <rect x="155.626" y="49.249" style="fill: rgb(63, 25, 0); stroke-width: 1;" width="9" height="9"/>
    <rect x="155.626" y="40.249" style="fill: rgb(63, 25, 0); stroke-width: 1;" width="9" height="9"/>
    <rect x="146.626" y="40.249" style="fill: rgb(63, 25, 0); stroke-width: 1;" width="9" height="9"/>
    <rect x="137.626" y="40.249" style="fill: rgb(63, 25, 0); stroke-width: 1;" width="9" height="9"/>
    <rect x="173.626" y="58.249" style="fill: rgb(63, 25, 0); stroke-width: 1;" width="9" height="9"/>
    <rect x="173.626" y="49.249" style="fill: rgb(63, 25, 0); stroke-width: 1;" width="9" height="9"/>
    <rect x="173.626" y="40.249" style="fill: rgb(63, 25, 0); stroke-width: 1;" width="9" height="9"/>
    <rect x="173.626" y="31.249" style="fill: rgb(63, 25, 0); stroke-width: 1;" width="9" height="9"/>
    <rect x="128.626" y="67.249" style="fill: rgb(63, 25, 0); stroke-width: 1;" width="9" height="9"/>
    <rect x="173.626" y="67.249" style="fill: rgb(63, 25, 0); stroke-width: 1;" width="9" height="9"/>
    <rect x="137.626" y="67.249" style="fill: rgb(255, 195, 191); stroke-width: 1;" width="9" height="9"/>
    <rect x="146.626" y="67.249" style="fill: rgb(255, 195, 191); stroke-width: 1;" width="9" height="9"/>
    <rect x="155.626" y="67.249" style="fill: rgb(255, 195, 191); stroke-width: 1;" width="9" height="9"/>
    <rect x="164.626" y="67.249" style="fill: rgb(255, 195, 191); stroke-width: 1;" width="9" height="9"/>
    <rect x="164.626" y="76.249" style="fill: rgb(255, 195, 191); stroke-width: 1;" width="9" height="9"/>
    <rect x="155.626" y="76.249" style="fill: rgb(255, 195, 191); stroke-width: 1;" width="9" height="9"/>
    <rect x="146.626" y="76.249" style="fill: rgb(255, 195, 191); stroke-width: 1;" width="9" height="9"/>
    <rect x="128.626" y="76.249" style="fill: rgb(255, 155, 148); stroke-width: 1;" width="9" height="9"/>
    <rect x="128.626" y="85.249" style="fill: rgb(255, 195, 191); stroke-width: 1;" width="9" height="9"/>
    <rect x="137.626" y="85.249" style="fill: rgb(255, 195, 191); stroke-width: 1;" width="9" height="9"/>
    <rect x="146.626" y="85.249" style="fill: rgb(255, 195, 191); stroke-width: 1;" width="9" height="9"/>
    <rect x="155.626" y="85.249" style="fill: rgb(255, 195, 191); stroke-width: 1;" width="9" height="9"/>
    <rect x="164.626" y="85.249" style="fill: rgb(255, 195, 191); stroke-width: 1;" width="9" height="9"/>
    <rect x="173.626" y="85.249" style="fill: rgb(255, 195, 191); stroke-width: 1;" width="9" height="9"/>
    <rect x="173.626" y="76.249" style="fill: rgb(255, 155, 148); stroke-width: 1;" width="9" height="9"/>
    <rect x="137.626" y="76.249" style="fill: rgb(255, 195, 191); stroke-width: 1;" width="9" height="9"/>
    <rect x="128.626" y="67.249" style="fill: rgb(255, 195, 191); stroke-width: 1;" width="9" height="9"/>
    <rect x="173.626" y="67.249" style="fill: rgb(255, 195, 191); stroke-width: 1;" width="9" height="9"/>
    <rect x="137.626" y="67.249" width="9" height="9" style="stroke-width: 1;"/>
    <rect x="164.626" y="67.249" width="9" height="9" style="stroke-width: 1;"/>
    <rect x="128.626" y="94.249" style="fill: rgb(95, 166, 255); stroke-width: 1;" width="9" height="9"/>
    <rect x="137.626" y="94.249" style="fill: rgb(95, 166, 255); stroke-width: 1;" width="9" height="9"/>
    <rect x="146.626" y="94.249" style="fill: rgb(95, 166, 255); stroke-width: 1;" width="9" height="9"/>
    <rect x="155.626" y="94.249" style="fill: rgb(95, 166, 255); stroke-width: 1;" width="9" height="9"/>
    <rect x="164.626" y="94.249" style="fill: rgb(95, 166, 255); stroke-width: 1;" width="9" height="9"/>
    <rect x="173.626" y="94.249" style="fill: rgb(95, 166, 255); stroke-width: 1;" width="9" height="9"/>
    <rect x="173.626" y="103.249" style="fill: rgb(95, 166, 255); stroke-width: 1;" width="9" height="9"/>
    <rect x="173.626" y="112.249" style="fill: rgb(95, 166, 255); stroke-width: 1;" width="9" height="9"/>
    <rect x="173.626" y="121.251" style="fill: rgb(95, 166, 255); stroke-width: 1;" width="9" height="9"/>
    <rect x="164.626" y="121.251" style="fill: rgb(95, 166, 255); stroke-width: 1;" width="9" height="9"/>
    <rect x="155.626" y="121.251" style="fill: rgb(95, 166, 255); stroke-width: 1;" width="9" height="9"/>
    <rect x="146.626" y="121.251" style="fill: rgb(95, 166, 255); stroke-width: 1;" width="9" height="9"/>
    <rect x="137.626" y="121.251" style="fill: rgb(95, 166, 255); stroke-width: 1;" width="9" height="9"/>
    <rect x="128.626" y="121.251" style="fill: rgb(95, 166, 255); stroke-width: 1;" width="9" height="9"/>
    <rect x="128.626" y="112.249" style="fill: rgb(95, 166, 255); stroke-width: 1;" width="9" height="9"/>
    <rect x="128.626" y="103.249" style="fill: rgb(95, 166, 255); stroke-width: 1;" width="9" height="9"/>
    <rect x="137.626" y="103.249" style="fill: rgb(95, 166, 255); stroke-width: 1;" width="9" height="9"/>
    <rect x="146.626" y="103.249" style="fill: rgb(95, 166, 255); stroke-width: 1;" width="9" height="9"/>
    <rect x="155.626" y="103.249" style="fill: rgb(95, 166, 255); stroke-width: 1;" width="9" height="9"/>
    <rect x="164.626" y="103.249" style="fill: rgb(95, 166, 255); stroke-width: 1;" width="9" height="9"/>
    <rect x="164.626" y="112.249" style="fill: rgb(95, 166, 255); stroke-width: 1;" width="9" height="9"/>
    <rect x="155.626" y="112.249" style="fill: rgb(95, 166, 255); stroke-width: 1;" width="9" height="9"/>
    <rect x="146.626" y="112.249" style="fill: rgb(95, 166, 255); stroke-width: 1;" width="9" height="9"/>
    <rect x="137.626" y="112.249" style="fill: rgb(95, 166, 255); stroke-width: 1;" width="9" height="9"/>
    <rect x="128.626" y="130.251" style="fill: rgb(95, 166, 255); stroke-width: 1;" width="9" height="9"/>
    <rect x="137.626" y="130.251" style="fill: rgb(95, 166, 255); stroke-width: 1;" width="9" height="9"/>
    <rect x="146.626" y="130.251" style="fill: rgb(95, 166, 255); stroke-width: 1;" width="9" height="9"/>
    <rect x="155.626" y="130.251" style="fill: rgb(95, 166, 255); stroke-width: 1;" width="9" height="9"/>
    <rect x="164.626" y="130.251" style="fill: rgb(95, 166, 255); stroke-width: 1;" width="9" height="9"/>
    <rect x="173.626" y="130.251" style="fill: rgb(95, 166, 255); stroke-width: 1;" width="9" height="9"/>
    <rect x="146.626" y="94.249" style="fill: rgb(63, 25, 0); stroke-width: 1;" width="9" height="9"/>
    <rect x="155.626" y="94.249" style="fill: rgb(63, 25, 0); stroke-width: 1;" width="9" height="9"/>
    <rect x="146.626" y="103.249" style="fill: rgb(107, 42, 0); stroke-width: 1;" width="9" height="9"/>
    <rect x="146.626" y="112.249" style="fill: rgb(107, 42, 0); stroke-width: 1;" width="9" height="9"/>
    <rect x="146.626" y="121.251" style="fill: rgb(107, 42, 0); stroke-width: 1;" width="9" height="9"/>
    <rect x="155.626" y="121.251" style="fill: rgb(107, 42, 0); stroke-width: 1;" width="9" height="9"/>
    <rect x="155.626" y="112.249" style="fill: rgb(107, 42, 0); stroke-width: 1;" width="9" height="9"/>
    <rect x="155.626" y="103.249" style="fill: rgb(107, 42, 0); stroke-width: 1;" width="9" height="9"/>
    <rect x="155.626" y="94.249" style="fill: rgb(43, 15, 0); stroke-width: 1;" width="9" height="9"/>
    <rect x="146.626" y="94.249" style="fill: rgb(43, 15, 0); stroke-width: 1;" width="9" height="9"/>
    <rect x="128.626" y="139.251" width="9" height="9" style="stroke-width: 1;"/>
    <rect x="137.626" y="139.251" width="9" height="9" style="stroke-width: 1;"/>
    <rect x="146.626" y="139.251" width="9" height="9" style="stroke-width: 1;"/>
    <rect x="155.626" y="139.251" width="9" height="9" style="stroke-width: 1;"/>
    <rect x="164.626" y="139.251" width="9" height="9" style="stroke-width: 1;"/>
    <rect x="173.626" y="139.251" width="9" height="9" style="stroke-width: 1;"/>
    <rect x="173.626" y="148.253" width="9" height="9" style="stroke-width: 1;"/>
    <rect x="164.626" y="148.253" width="9" height="9" style="stroke-width: 1;"/>
    <rect x="155.626" y="148.253" width="9" height="9" style="stroke-width: 1;"/>
    <rect x="146.626" y="148.253" width="9" height="9" style="stroke-width: 1;"/>
    <rect x="137.626" y="148.253" width="9" height="9" style="stroke-width: 1;"/>
    <rect x="128.626" y="148.253" width="9" height="9" style="stroke-width: 1;"/>
    <rect x="128.626" y="157.253" width="9" height="9" style="stroke-width: 1;"/>
    <rect x="128.626" y="166.253" width="9" height="9" style="stroke-width: 1;"/>
    <rect x="128.626" y="175.253" width="9" height="9" style="stroke-width: 1;"/>
    <rect x="128.626" y="184.253" width="9" height="9" style="stroke-width: 1;"/>
    <rect x="137.626" y="184.253" width="9" height="9" style="stroke-width: 1;"/>
    <rect x="137.626" y="175.253" width="9" height="9" style="stroke-width: 1;"/>
    <rect x="137.626" y="166.253" width="9" height="9" style="stroke-width: 1;"/>
    <rect x="137.626" y="157.253" width="9" height="9" style="stroke-width: 1;"/>
    <rect x="164.626" y="157.253" width="9" height="9" style="stroke-width: 1;"/>
    <rect x="164.626" y="166.253" width="9" height="9" style="stroke-width: 1;"/>
    <rect x="164.626" y="175.253" width="9" height="9" style="stroke-width: 1;"/>
    <rect x="164.626" y="184.253" width="9" height="9" style="stroke-width: 1;"/>
    <rect x="173.626" y="184.253" width="9" height="9" style="stroke-width: 1;"/>
    <rect x="173.626" y="175.253" width="9" height="9" style="stroke-width: 1;"/>
    <rect x="173.626" y="166.253" width="9" height="9" style="stroke-width: 1;"/>
    <rect x="173.626" y="157.253" width="9" height="9" style="stroke-width: 1;"/>
    <rect x="137.626" y="193.253" width="9" height="9" style="stroke-width: 1;"/>
    <rect x="128.626" y="193.253" width="9" height="9" style="stroke-width: 1;"/>
    <rect x="119.626" y="193.253" width="9" height="9" style="stroke-width: 1;"/>
    <rect x="164.626" y="193.253" width="9" height="9" style="stroke-width: 1;"/>
    <rect x="173.626" y="193.253" width="9" height="9" style="stroke-width: 1;"/>
    <rect x="182.626" y="193.253" width="9" height="9" style="stroke-width: 1;"/>
    <rect x="119.626" y="103.249" style="fill: rgb(59, 146, 255); stroke-width: 1;" width="9" height="9"/>
    <rect x="119.626" y="112.249" style="fill: rgb(59, 146, 255); stroke-width: 1;" width="9" height="9"/>
    <rect x="119.626" y="121.251" style="fill: rgb(59, 146, 255); stroke-width: 1;" width="9" height="9"/>
    <rect x="119.626" y="130.251" style="fill: rgb(59, 146, 255); stroke-width: 1;" width="9" height="9"/>
    <rect x="119.626" y="139.251" style="fill: rgb(59, 146, 255); stroke-width: 1;" width="9" height="9"/>
    <rect x="182.626" y="139.251" style="fill: rgb(59, 146, 255); stroke-width: 1;" width="9" height="9"/>
    <rect x="182.626" y="130.251" style="fill: rgb(59, 146, 255); stroke-width: 1;" width="9" height="9"/>
    <rect x="182.626" y="121.251" style="fill: rgb(59, 146, 255); stroke-width: 1;" width="9" height="9"/>
    <rect x="182.626" y="112.249" style="fill: rgb(59, 146, 255); stroke-width: 1;" width="9" height="9"/>
    <rect x="182.626" y="103.249" style="fill: rgb(59, 146, 255); stroke-width: 1;" width="9" height="9"/>
    <rect x="119.626" y="148.253" style="fill: rgb(255, 195, 191); stroke-width: 1;" width="9" height="9"/>
    <rect x="182.626" y="148.253" style="fill: rgb(255, 195, 191); stroke-width: 1;" width="9" height="9"/>
    <rect x="128.626" y="139.251" style="fill: rgb(95, 166, 255); stroke-width: 1;" width="9" height="9"/>
    <rect x="137.626" y="139.251" style="fill: rgb(95, 166, 255); stroke-width: 1;" width="9" height="9"/>
    <rect x="146.626" y="139.251" style="fill: rgb(95, 166, 255); stroke-width: 1;" width="9" height="9"/>
    <rect x="155.626" y="139.251" style="fill: rgb(95, 166, 255); stroke-width: 1;" width="9" height="9"/>
    <rect x="164.626" y="139.251" style="fill: rgb(95, 166, 255); stroke-width: 1;" width="9" height="9"/>
    <rect x="173.626" y="139.251" style="fill: rgb(95, 166, 255); stroke-width: 1;" width="9" height="9"/>
  </g>
</svg>