<svg xmlns="http://www.w3.org/2000/svg" viewBox="343.75 162.2 78.79 148.34">
  <g id="Layer_1" transform="matrix(0.795852, 0, 0, 0.867499, 96.317459, 161.119019)" style="">
    <g transform="matrix(1, 0, 0, 1, -365.092102, -223.75827)">
      <rect x="676" y="252" style="fill:#3F1900;" width="9" height="9"/>
      <rect x="685" y="252" style="fill:#3F1900;" width="9" height="9"/>
      <rect x="694" y="252" style="fill:#3F1900;" width="9" height="9"/>
      <rect x="703" y="252" style="fill:#3F1900;" width="9" height="9"/>
      <rect x="712" y="252" style="fill:#3F1900;" width="9" height="9"/>
      <rect x="712" y="243" style="fill:#3F1900;" width="9" height="9"/>
      <rect x="712" y="234" style="fill:#3F1900;" width="9" height="9"/>
      <rect x="712" y="225" style="fill:#3F1900;" width="9" height="9"/>
      <rect x="703" y="225" style="fill:#3F1900;" width="9" height="9"/>
      <rect x="694" y="225" style="fill:#3F1900;" width="9" height="9"/>
      <rect x="685" y="225" style="fill:#3F1900;" width="9" height="9"/>
      <rect x="676" y="234" style="fill:#3F1900;" width="9" height="9"/>
      <rect x="676" y="243" style="fill:#3F1900;" width="9" height="9"/>
      <rect x="685" y="243" style="fill:#3F1900;" width="9" height="9"/>
      <rect x="694" y="243" style="fill:#3F1900;" width="9" height="9"/>
      <rect x="703" y="243" style="fill:#3F1900;" width="9" height="9"/>
      <rect x="703" y="234" style="fill:#3F1900;" width="9" height="9"/>
      <rect x="694" y="234" style="fill:#3F1900;" width="9" height="9"/>
      <rect x="685" y="234" style="fill:#3F1900;" width="9" height="9"/>
      <rect x="721" y="252" style="fill:#3F1900;" width="9" height="9"/>
      <rect x="721" y="243" style="fill:#3F1900;" width="9" height="9"/>
      <rect x="730" y="243" style="fill:#3F1900;" width="9" height="9"/>
      <rect x="730" y="234" style="fill:#3F1900;" width="9" height="9"/>
      <rect x="730" y="225" style="fill:#3F1900;" width="9" height="9"/>
      <rect x="721" y="234" style="fill:#3F1900;" width="9" height="9"/>
      <rect x="721" y="225" style="fill:#3F1900;" width="9" height="9"/>
      <rect x="676" y="261" style="fill:#3F1900;" width="9" height="9"/>
      <rect x="721" y="261" style="fill:#3F1900;" width="9" height="9"/>
      <rect x="685" y="261" style="fill:#3F1900;" width="9" height="9"/>
      <rect x="694" y="261" style="fill:#3F1900;" width="9" height="9"/>
      <rect x="703" y="261" style="fill:#FFC3BF;" width="9" height="9"/>
      <rect x="712" y="261" style="fill:#FFC3BF;" width="9" height="9"/>
      <rect x="712" y="270" style="fill:#FFC3BF;" width="9" height="9"/>
      <rect x="703" y="270" style="fill:#FFC3BF;" width="9" height="9"/>
      <rect x="694" y="270" style="fill:#FFC3BF;" width="9" height="9"/>
      <rect x="676" y="279" style="fill:#FFC3BF;" width="9" height="9"/>
      <rect x="685" y="279" style="fill:#FFC3BF;" width="9" height="9"/>
      <rect x="694" y="279" style="fill:#FFC3BF;" width="9" height="9"/>
      <rect x="703" y="279" style="fill:#FFC3BF;" width="9" height="9"/>
      <rect x="712" y="279" style="fill:#FFC3BF;" width="9" height="9"/>
      <rect x="703" y="270" style="fill:#FF9B94;" width="9" height="9"/>
      <rect x="685" y="270" style="fill:#3F1900;" width="9" height="9"/>
      <rect x="676" y="261" style="fill:#3F1900;" width="9" height="9"/>
      <rect x="676" y="270" style="fill:#3F1900;" width="9" height="9"/>
      <rect x="721" y="261" style="fill:#FFC3BF;" width="9" height="9"/>
      <rect x="721" y="270" style="fill:#FFC3BF;" width="9" height="9"/>
      <rect x="712" y="261" width="9" height="9"/>
      <rect x="676" y="288" style="fill:#3B92FF;" width="9" height="9"/>
      <rect x="685" y="288" style="fill:#3B92FF;" width="9" height="9"/>
      <rect x="694" y="288" style="fill:#5FA6FF;" width="9" height="9"/>
      <rect x="703" y="288" style="fill:#5FA6FF;" width="9" height="9"/>
      <rect x="712" y="288" style="fill:#2B0F00;" width="9" height="9"/>
      <rect x="721" y="288" style="fill:#5FA6FF;" width="9" height="9"/>
      <rect x="721" y="297" style="fill:#5FA6FF;" width="9" height="9"/>
      <rect x="721" y="306" style="fill:#5FA6FF;" width="9" height="9"/>
      <rect x="721" y="315" style="fill:#5FA6FF;" width="9" height="9"/>
      <rect x="712" y="315" style="fill:#6B2A00;" width="9" height="9"/>
      <rect x="703" y="315" style="fill:#5FA6FF;" width="9" height="9"/>
      <rect x="694" y="315" style="fill:#5FA6FF;" width="9" height="9"/>
      <rect x="685" y="315" style="fill:#3B92FF;" width="9" height="9"/>
      <rect x="676" y="315" style="fill:#3B92FF;" width="9" height="9"/>
      <rect x="676" y="306" style="fill:#3B92FF;" width="9" height="9"/>
      <rect x="676" y="297" style="fill:#3B92FF;" width="9" height="9"/>
      <rect x="685" y="297" style="fill:#3B92FF;" width="9" height="9"/>
      <rect x="694" y="297" style="fill:#5FA6FF;" width="9" height="9"/>
      <rect x="703" y="297" style="fill:#5FA6FF;" width="9" height="9"/>
      <rect x="712" y="297" style="fill:#6B2A00;" width="9" height="9"/>
      <rect x="712" y="306" style="fill:#6B2A00;" width="9" height="9"/>
      <rect x="703" y="306" style="fill:#5FA6FF;" width="9" height="9"/>
      <rect x="694" y="306" style="fill:#5FA6FF;" width="9" height="9"/>
      <rect x="685" y="306" style="fill:#3B92FF;" width="9" height="9"/>
      <rect x="676" y="324" style="fill:#3B92FF;" width="9" height="9"/>
      <rect x="685" y="324" style="fill:#3B92FF;" width="9" height="9"/>
      <rect x="694" y="324" style="fill:#5FA6FF;" width="9" height="9"/>
      <rect x="703" y="324" style="fill:#6B2A00;" width="9" height="9"/>
      <rect x="712" y="324" style="fill:#6B2A00;" width="9" height="9"/>
      <rect x="721" y="324" style="fill:#5FA6FF;" width="9" height="9"/>
      <rect x="694" y="288" style="fill:#5FA6FF;" width="9" height="9"/>
      <rect x="703" y="288" style="fill:#5FA6FF;" width="9" height="9"/>
      <rect x="694" y="297" style="fill:#5FA6FF;" width="9" height="9"/>
      <rect x="694" y="306" style="fill:#5FA6FF;" width="9" height="9"/>
      <rect x="694" y="315" style="fill:#5FA6FF;" width="9" height="9"/>
      <rect x="703" y="315" style="fill:#6B2A00;" width="9" height="9"/>
      <rect x="703" y="306" style="fill:#6B2A00;" width="9" height="9"/>
      <rect x="703" y="297" style="fill:#6B2A00;" width="9" height="9"/>
      <rect x="703" y="288" style="fill:#2B0F00;" width="9" height="9"/>
      <rect x="694" y="288" style="fill:#5FA6FF;" width="9" height="9"/>
      <rect x="676" y="333" style="fill:#3B92FF;" width="9" height="9"/>
      <rect x="685" y="333" style="fill:#3B92FF;" width="9" height="9"/>
      <rect x="694" y="333" width="9" height="9"/>
      <rect x="703" y="333" width="9" height="9"/>
      <rect x="712" y="333" width="9" height="9"/>
      <rect x="721" y="333" width="9" height="9"/>
      <rect x="721" y="342" width="9" height="9"/>
      <rect x="712" y="342" width="9" height="9"/>
      <rect x="703" y="342" width="9" height="9"/>
      <rect x="694" y="342" width="9" height="9"/>
      <rect x="685" y="342" style="fill:#FFC3BF;" width="9" height="9"/>
      <rect x="676" y="342" style="fill:#FFC3BF;" width="9" height="9"/>
      <rect x="712" y="351" width="9" height="9"/>
      <rect x="712" y="360" width="9" height="9"/>
      <rect x="712" y="369" width="9" height="9"/>
      <rect x="712" y="378" width="9" height="9"/>
      <rect x="721" y="378" width="9" height="9"/>
      <rect x="721" y="369" width="9" height="9"/>
      <rect x="721" y="360" width="9" height="9"/>
      <rect x="721" y="351" width="9" height="9"/>
      <rect x="712" y="387" width="9" height="9"/>
      <rect x="721" y="387" width="9" height="9"/>
      <rect x="730" y="387" width="9" height="9"/>
      <rect x="676" y="351" width="9" height="9"/>
      <rect x="676" y="360" width="9" height="9"/>
      <rect x="676" y="369" width="9" height="9"/>
      <rect x="676" y="378" width="9" height="9"/>
      <rect x="685" y="378" width="9" height="9"/>
      <rect x="685" y="369" width="9" height="9"/>
      <rect x="685" y="360" width="9" height="9"/>
      <rect x="685" y="351" width="9" height="9"/>
      <rect x="676" y="387" width="9" height="9"/>
      <rect x="685" y="387" width="9" height="9"/>
      <rect x="694" y="387" width="9" height="9"/>
      <rect x="748" y="288" style="fill:#3B92FF;" width="9" height="9"/>
      <rect x="748" y="297" style="fill:#3B92FF;" width="9" height="9"/>
      <rect x="757" y="288" style="fill:#FFC3BF;" width="9" height="9"/>
      <rect x="757" y="297" style="fill:#FFC3BF;" width="9" height="9"/>
      <rect x="766" y="288" style="fill:#FFC3BF;" width="9" height="9"/>
      <rect x="739" y="297" style="fill:#3B92FF;" width="9" height="9"/>
      <rect x="739" y="288" style="fill:#3B92FF;" width="9" height="9"/>
      <rect x="730" y="288" style="fill:#3B92FF;" width="9" height="9"/>
      <rect x="730" y="297" style="fill:#3B92FF;" width="9" height="9"/>
      <rect x="676" y="333" style="fill:#3B92FF;" width="9" height="9"/>
      <rect x="685" y="333" style="fill:#3B92FF;" width="9" height="9"/>
      <rect x="694" y="333" style="fill:#5FA6FF;" width="9" height="9"/>
      <rect x="703" y="333" style="fill:#5FA6FF;" width="9" height="9"/>
      <rect x="712" y="333" style="fill:#5FA6FF;" width="9" height="9"/>
      <rect x="721" y="333" style="fill:#5FA6FF;" width="9" height="9"/>
    </g>
  </g>
</svg>