<svg xmlns="http://www.w3.org/2000/svg" viewBox="279.18 162.81 78.79 148.34">
  <g id="Layer_1" transform="matrix(0.795852, 0, 0, 0.867499, 96.317459, 161.119019)" style="">
    <g transform="matrix(1, 0, 0, 1, -185.232346, -223.049332)">
      <rect x="424" y="252" style="fill:#3F1900;" width="9" height="9"/>
      <rect x="433" y="252" style="fill:#3F1900;" width="9" height="9"/>
      <rect x="442" y="252" style="fill:#3F1900;" width="9" height="9"/>
      <rect x="451" y="252" style="fill:#3F1900;" width="9" height="9"/>
      <rect x="460" y="252" style="fill:#3F1900;" width="9" height="9"/>
      <rect x="460" y="243" style="fill:#3F1900;" width="9" height="9"/>
      <rect x="460" y="234" style="fill:#3F1900;" width="9" height="9"/>
      <rect x="460" y="225" style="fill:#3F1900;" width="9" height="9"/>
      <rect x="451" y="225" style="fill:#3F1900;" width="9" height="9"/>
      <rect x="442" y="225" style="fill:#3F1900;" width="9" height="9"/>
      <rect x="433" y="225" style="fill:#3F1900;" width="9" height="9"/>
      <rect x="424" y="225" style="fill:#3F1900;" width="9" height="9"/>
      <rect x="424" y="234" style="fill:#3F1900;" width="9" height="9"/>
      <rect x="424" y="243" style="fill:#3F1900;" width="9" height="9"/>
      <rect x="433" y="243" style="fill:#3F1900;" width="9" height="9"/>
      <rect x="442" y="243" style="fill:#3F1900;" width="9" height="9"/>
      <rect x="451" y="243" style="fill:#3F1900;" width="9" height="9"/>
      <rect x="451" y="234" style="fill:#3F1900;" width="9" height="9"/>
      <rect x="442" y="234" style="fill:#3F1900;" width="9" height="9"/>
      <rect x="433" y="234" style="fill:#3F1900;" width="9" height="9"/>
      <rect x="469" y="252" style="fill:#3F1900;" width="9" height="9"/>
      <rect x="469" y="243" style="fill:#3F1900;" width="9" height="9"/>
      <rect x="469" y="234" style="fill:#3F1900;" width="9" height="9"/>
      <rect x="469" y="225" style="fill:#3F1900;" width="9" height="9"/>
      <rect x="424" y="261" style="fill:#3F1900;" width="9" height="9"/>
      <rect x="469" y="261" style="fill:#3F1900;" width="9" height="9"/>
      <rect x="433" y="261" style="fill:#FFC3BF;" width="9" height="9"/>
      <rect x="442" y="261" style="fill:#FFC3BF;" width="9" height="9"/>
      <rect x="451" y="261" style="fill:#FFC3BF;" width="9" height="9"/>
      <rect x="460" y="261" style="fill:#FFC3BF;" width="9" height="9"/>
      <rect x="460" y="270" style="fill:#FFC3BF;" width="9" height="9"/>
      <rect x="451" y="270" style="fill:#FFC3BF;" width="9" height="9"/>
      <rect x="442" y="270" style="fill:#FFC3BF;" width="9" height="9"/>
      <rect x="424" y="270" style="fill:#FF9B94;" width="9" height="9"/>
      <rect x="424" y="279" style="fill:#FFC3BF;" width="9" height="9"/>
      <rect x="433" y="279" style="fill:#FFC3BF;" width="9" height="9"/>
      <rect x="442" y="279" style="fill:#FFC3BF;" width="9" height="9"/>
      <rect x="451" y="279" style="fill:#FFC3BF;" width="9" height="9"/>
      <rect x="460" y="279" style="fill:#FFC3BF;" width="9" height="9"/>
      <rect x="469" y="279" style="fill:#FFC3BF;" width="9" height="9"/>
      <rect x="469" y="270" style="fill:#FF9B94;" width="9" height="9"/>
      <rect x="433" y="270" style="fill:#FFC3BF;" width="9" height="9"/>
      <rect x="424" y="261" style="fill:#FFC3BF;" width="9" height="9"/>
      <rect x="469" y="261" style="fill:#FFC3BF;" width="9" height="9"/>
      <rect x="433" y="261" width="9" height="9"/>
      <rect x="460" y="261" width="9" height="9"/>
      <rect x="424" y="288" style="fill:#5FA6FF;" width="9" height="9"/>
      <rect x="433" y="288" style="fill:#5FA6FF;" width="9" height="9"/>
      <rect x="442" y="288" style="fill:#5FA6FF;" width="9" height="9"/>
      <rect x="451" y="288" style="fill:#5FA6FF;" width="9" height="9"/>
      <rect x="460" y="288" style="fill:#5FA6FF;" width="9" height="9"/>
      <rect x="469" y="288" style="fill:#5FA6FF;" width="9" height="9"/>
      <rect x="469" y="297" style="fill:#5FA6FF;" width="9" height="9"/>
      <rect x="469" y="306" style="fill:#5FA6FF;" width="9" height="9"/>
      <rect x="469" y="315" style="fill:#5FA6FF;" width="9" height="9"/>
      <rect x="460" y="315" style="fill:#5FA6FF;" width="9" height="9"/>
      <rect x="451" y="315" style="fill:#5FA6FF;" width="9" height="9"/>
      <rect x="442" y="315" style="fill:#5FA6FF;" width="9" height="9"/>
      <rect x="433" y="315" style="fill:#5FA6FF;" width="9" height="9"/>
      <rect x="424" y="315" style="fill:#5FA6FF;" width="9" height="9"/>
      <rect x="424" y="306" style="fill:#5FA6FF;" width="9" height="9"/>
      <rect x="424" y="297" style="fill:#5FA6FF;" width="9" height="9"/>
      <rect x="433" y="297" style="fill:#5FA6FF;" width="9" height="9"/>
      <rect x="442" y="297" style="fill:#5FA6FF;" width="9" height="9"/>
      <rect x="451" y="297" style="fill:#5FA6FF;" width="9" height="9"/>
      <rect x="460" y="297" style="fill:#5FA6FF;" width="9" height="9"/>
      <rect x="460" y="306" style="fill:#5FA6FF;" width="9" height="9"/>
      <rect x="451" y="306" style="fill:#5FA6FF;" width="9" height="9"/>
      <rect x="442" y="306" style="fill:#5FA6FF;" width="9" height="9"/>
      <rect x="433" y="306" style="fill:#5FA6FF;" width="9" height="9"/>
      <rect x="424" y="324" style="fill:#5FA6FF;" width="9" height="9"/>
      <rect x="433" y="324" style="fill:#5FA6FF;" width="9" height="9"/>
      <rect x="442" y="324" style="fill:#5FA6FF;" width="9" height="9"/>
      <rect x="451" y="324" style="fill:#5FA6FF;" width="9" height="9"/>
      <rect x="460" y="324" style="fill:#5FA6FF;" width="9" height="9"/>
      <rect x="469" y="324" style="fill:#5FA6FF;" width="9" height="9"/>
      <rect x="442" y="288" style="fill:#3F1900;" width="9" height="9"/>
      <rect x="451" y="288" style="fill:#3F1900;" width="9" height="9"/>
      <rect x="442" y="297" style="fill:#6B2A00;" width="9" height="9"/>
      <rect x="442" y="306" style="fill:#6B2A00;" width="9" height="9"/>
      <rect x="442" y="315" style="fill:#6B2A00;" width="9" height="9"/>
      <rect x="451" y="315" style="fill:#6B2A00;" width="9" height="9"/>
      <rect x="451" y="306" style="fill:#6B2A00;" width="9" height="9"/>
      <rect x="451" y="297" style="fill:#6B2A00;" width="9" height="9"/>
      <rect x="451" y="288" style="fill:#2B0F00;" width="9" height="9"/>
      <rect x="442" y="288" style="fill:#2B0F00;" width="9" height="9"/>
      <rect x="424" y="333" width="9" height="9"/>
      <rect x="433" y="333" width="9" height="9"/>
      <rect x="442" y="333" width="9" height="9"/>
      <rect x="451" y="333" width="9" height="9"/>
      <rect x="460" y="333" width="9" height="9"/>
      <rect x="469" y="333" width="9" height="9"/>
      <rect x="469" y="342" width="9" height="9"/>
      <rect x="460" y="342" width="9" height="9"/>
      <rect x="451" y="342" width="9" height="9"/>
      <rect x="442" y="342" width="9" height="9"/>
      <rect x="433" y="342" width="9" height="9"/>
      <rect x="424" y="342" width="9" height="9"/>
      <rect x="424" y="351" width="9" height="9"/>
      <rect x="424" y="360" width="9" height="9"/>
      <rect x="424" y="369" width="9" height="9"/>
      <rect x="424" y="378" width="9" height="9"/>
      <rect x="433" y="378" width="9" height="9"/>
      <rect x="433" y="369" width="9" height="9"/>
      <rect x="433" y="360" width="9" height="9"/>
      <rect x="433" y="351" width="9" height="9"/>
      <rect x="460" y="351" width="9" height="9"/>
      <rect x="460" y="360" width="9" height="9"/>
      <rect x="460" y="369" width="9" height="9"/>
      <rect x="460" y="378" width="9" height="9"/>
      <rect x="469" y="378" width="9" height="9"/>
      <rect x="469" y="369" width="9" height="9"/>
      <rect x="469" y="360" width="9" height="9"/>
      <rect x="469" y="351" width="9" height="9"/>
      <rect x="433" y="387" width="9" height="9"/>
      <rect x="424" y="387" width="9" height="9"/>
      <rect x="442" y="387" width="9" height="9"/>
      <rect x="460" y="387" width="9" height="9"/>
      <rect x="469" y="387" width="9" height="9"/>
      <rect x="478" y="387" width="9" height="9"/>
      <rect x="415" y="297" style="fill:#3B92FF;" width="9" height="9"/>
      <rect x="415" y="306" style="fill:#3B92FF;" width="9" height="9"/>
      <rect x="415" y="315" style="fill:#3B92FF;" width="9" height="9"/>
      <rect x="415" y="324" style="fill:#3B92FF;" width="9" height="9"/>
      <rect x="415" y="333" style="fill:#3B92FF;" width="9" height="9"/>
      <rect x="415" y="342" style="fill:#FFC3BF;" width="9" height="9"/>
      <rect x="496" y="288" style="fill:#3B92FF;" width="9" height="9"/>
      <rect x="487" y="297" style="fill:#3B92FF;" width="9" height="9"/>
      <rect x="496" y="261" style="fill:#3B92FF;" width="9" height="9"/>
      <rect x="505" y="261" style="fill:#3B92FF;" width="9" height="9"/>
      <rect x="505" y="270" style="fill:#3B92FF;" width="9" height="9"/>
      <rect x="496" y="270" style="fill:#3B92FF;" width="9" height="9"/>
      <rect x="496" y="279" style="fill:#3B92FF;" width="9" height="9"/>
      <rect x="487" y="279" style="fill:#3B92FF;" width="9" height="9"/>
      <rect x="487" y="288" style="fill:#3B92FF;" width="9" height="9"/>
      <rect x="478" y="288" style="fill:#3B92FF;" width="9" height="9"/>
      <rect x="505" y="252" style="fill:#FFC3BF;" width="9" height="9"/>
      <rect x="496" y="252" style="fill:#FFC3BF;" width="9" height="9"/>
      <rect x="496" y="243" style="fill:#FFC3BF;" width="9" height="9"/>
      <rect x="505" y="243" style="fill:#FFC3BF;" width="9" height="9"/>
      <rect x="478" y="297" style="fill:#3B92FF;" width="9" height="9"/>
      <rect x="424" y="333" style="fill:#5FA6FF;" width="9" height="9"/>
      <rect x="433" y="333" style="fill:#5FA6FF;" width="9" height="9"/>
      <rect x="442" y="333" style="fill:#5FA6FF;" width="9" height="9"/>
      <rect x="451" y="333" style="fill:#5FA6FF;" width="9" height="9"/>
      <rect x="460" y="333" style="fill:#5FA6FF;" width="9" height="9"/>
      <rect x="469" y="333" style="fill:#5FA6FF;" width="9" height="9"/>
    </g>
  </g>
</svg>